<mxfile host="Electron" modified="2023-11-29T15:02:41.122Z" agent="Mozilla/5.0 (Windows NT 10.0; Win64; x64) AppleWebKit/537.36 (KHTML, like Gecko) draw.io/21.7.5 Chrome/114.0.5735.289 Electron/25.8.1 Safari/537.36" etag="72QUXhCIcrhjxaKFjR3G" version="21.7.5" type="device">
  <diagram id="R2lEEEUBdFMjLlhIrx00" name="Page-1">
    <mxGraphModel dx="2330" dy="1964" grid="1" gridSize="10" guides="1" tooltips="1" connect="1" arrows="1" fold="1" page="1" pageScale="1" pageWidth="850" pageHeight="1100" math="0" shadow="0" extFonts="Permanent Marker^https://fonts.googleapis.com/css?family=Permanent+Marker">
      <root>
        <mxCell id="0" />
        <mxCell id="1" parent="0" />
        <mxCell id="1rexJfYxTeG325KfZI-P-1" value="Employee" style="rounded=0;whiteSpace=wrap;html=1;" parent="1" vertex="1">
          <mxGeometry x="500" y="20" width="120" height="60" as="geometry" />
        </mxCell>
        <mxCell id="1rexJfYxTeG325KfZI-P-6" value="ISA" style="triangle;whiteSpace=wrap;html=1;rotation=-90;" parent="1" vertex="1">
          <mxGeometry x="530" y="110" width="60" height="80" as="geometry" />
        </mxCell>
        <mxCell id="1rexJfYxTeG325KfZI-P-7" value="" style="endArrow=none;html=1;rounded=0;entryX=0.5;entryY=0;entryDx=0;entryDy=0;exitX=1;exitY=0.5;exitDx=0;exitDy=0;" parent="1" source="1rexJfYxTeG325KfZI-P-8" target="1rexJfYxTeG325KfZI-P-6" edge="1">
          <mxGeometry width="50" height="50" relative="1" as="geometry">
            <mxPoint x="480" y="170" as="sourcePoint" />
            <mxPoint x="450" y="290" as="targetPoint" />
          </mxGeometry>
        </mxCell>
        <mxCell id="1rexJfYxTeG325KfZI-P-8" value="Scientist" style="rounded=0;whiteSpace=wrap;html=1;" parent="1" vertex="1">
          <mxGeometry x="355" y="140" width="120" height="50" as="geometry" />
        </mxCell>
        <mxCell id="1rexJfYxTeG325KfZI-P-9" value="Missions" style="rounded=0;whiteSpace=wrap;html=1;" parent="1" vertex="1">
          <mxGeometry x="110" y="150" width="110" height="40" as="geometry" />
        </mxCell>
        <mxCell id="1rexJfYxTeG325KfZI-P-10" value="Passive" style="rounded=0;whiteSpace=wrap;html=1;" parent="1" vertex="1">
          <mxGeometry x="500" y="255" width="110" height="40" as="geometry" />
        </mxCell>
        <mxCell id="1rexJfYxTeG325KfZI-P-11" value="Active" style="rounded=0;whiteSpace=wrap;html=1;" parent="1" vertex="1">
          <mxGeometry x="280" y="315" width="110" height="40" as="geometry" />
        </mxCell>
        <mxCell id="1rexJfYxTeG325KfZI-P-13" value="Trainer" style="rounded=0;whiteSpace=wrap;html=1;" parent="1" vertex="1">
          <mxGeometry x="630" y="170" width="110" height="40" as="geometry" />
        </mxCell>
        <mxCell id="1rexJfYxTeG325KfZI-P-15" value="" style="endArrow=none;html=1;rounded=0;entryX=0.284;entryY=0.868;entryDx=0;entryDy=0;exitX=0.5;exitY=0;exitDx=0;exitDy=0;entryPerimeter=0;" parent="1" source="1rexJfYxTeG325KfZI-P-13" target="1rexJfYxTeG325KfZI-P-6" edge="1">
          <mxGeometry width="50" height="50" relative="1" as="geometry">
            <mxPoint x="580" y="250" as="sourcePoint" />
            <mxPoint x="560" y="320" as="targetPoint" />
          </mxGeometry>
        </mxCell>
        <mxCell id="1rexJfYxTeG325KfZI-P-16" value="" style="endArrow=none;html=1;rounded=0;entryX=0;entryY=0.25;entryDx=0;entryDy=0;exitX=0.75;exitY=0;exitDx=0;exitDy=0;" parent="1" source="1rexJfYxTeG325KfZI-P-11" target="1rexJfYxTeG325KfZI-P-6" edge="1">
          <mxGeometry width="50" height="50" relative="1" as="geometry">
            <mxPoint x="510" y="260" as="sourcePoint" />
            <mxPoint x="540" y="240" as="targetPoint" />
            <Array as="points">
              <mxPoint x="440" y="240" />
            </Array>
          </mxGeometry>
        </mxCell>
        <mxCell id="1rexJfYxTeG325KfZI-P-19" value="fly" style="rhombus;whiteSpace=wrap;html=1;" parent="1" vertex="1">
          <mxGeometry x="190" y="295" width="60" height="60" as="geometry" />
        </mxCell>
        <mxCell id="1rexJfYxTeG325KfZI-P-20" value="builds" style="rhombus;whiteSpace=wrap;html=1;" parent="1" vertex="1">
          <mxGeometry x="40" y="190" width="50" height="50" as="geometry" />
        </mxCell>
        <mxCell id="1rexJfYxTeG325KfZI-P-21" value="fires" style="rhombus;whiteSpace=wrap;html=1;" parent="1" vertex="1">
          <mxGeometry x="670" y="20" width="60" height="60" as="geometry" />
        </mxCell>
        <mxCell id="1rexJfYxTeG325KfZI-P-22" value="is now in" style="rhombus;whiteSpace=wrap;html=1;" parent="1" vertex="1">
          <mxGeometry x="-120" y="285" width="50" height="50" as="geometry" />
        </mxCell>
        <mxCell id="1rexJfYxTeG325KfZI-P-23" value="sets up" style="rhombus;whiteSpace=wrap;html=1;" parent="1" vertex="1">
          <mxGeometry x="275" y="140" width="60" height="60" as="geometry" />
        </mxCell>
        <mxCell id="1rexJfYxTeG325KfZI-P-24" value="" style="endArrow=none;html=1;rounded=0;entryX=0;entryY=0.5;entryDx=0;entryDy=0;exitX=1;exitY=0.5;exitDx=0;exitDy=0;" parent="1" source="1rexJfYxTeG325KfZI-P-23" target="1rexJfYxTeG325KfZI-P-8" edge="1">
          <mxGeometry width="50" height="50" relative="1" as="geometry">
            <mxPoint x="300" y="170" as="sourcePoint" />
            <mxPoint x="330" y="180" as="targetPoint" />
          </mxGeometry>
        </mxCell>
        <mxCell id="1rexJfYxTeG325KfZI-P-28" value="" style="endArrow=none;html=1;rounded=0;entryX=-0.053;entryY=0.61;entryDx=0;entryDy=0;exitX=0.604;exitY=-0.02;exitDx=0;exitDy=0;exitPerimeter=0;entryPerimeter=0;" parent="1" source="1rexJfYxTeG325KfZI-P-10" target="1rexJfYxTeG325KfZI-P-6" edge="1">
          <mxGeometry width="50" height="50" relative="1" as="geometry">
            <mxPoint x="495" y="390" as="sourcePoint" />
            <mxPoint x="495" y="350" as="targetPoint" />
          </mxGeometry>
        </mxCell>
        <mxCell id="1rexJfYxTeG325KfZI-P-29" value="" style="endArrow=none;html=1;rounded=0;entryX=1;entryY=1;entryDx=0;entryDy=0;exitX=0.25;exitY=0;exitDx=0;exitDy=0;" parent="1" source="1rexJfYxTeG325KfZI-P-11" target="1rexJfYxTeG325KfZI-P-33" edge="1">
          <mxGeometry width="50" height="50" relative="1" as="geometry">
            <mxPoint x="220" y="360" as="sourcePoint" />
            <mxPoint x="270" y="310" as="targetPoint" />
          </mxGeometry>
        </mxCell>
        <mxCell id="1rexJfYxTeG325KfZI-P-30" value="" style="endArrow=none;html=1;rounded=0;entryX=0.847;entryY=1.03;entryDx=0;entryDy=0;entryPerimeter=0;exitX=0;exitY=0;exitDx=0;exitDy=0;" parent="1" source="1rexJfYxTeG325KfZI-P-33" target="1rexJfYxTeG325KfZI-P-9" edge="1">
          <mxGeometry width="50" height="50" relative="1" as="geometry">
            <mxPoint x="145" y="290" as="sourcePoint" />
            <mxPoint x="195" y="240" as="targetPoint" />
          </mxGeometry>
        </mxCell>
        <mxCell id="1rexJfYxTeG325KfZI-P-33" value="apply" style="rhombus;whiteSpace=wrap;html=1;" parent="1" vertex="1">
          <mxGeometry x="250" y="220" width="60" height="60" as="geometry" />
        </mxCell>
        <mxCell id="1rexJfYxTeG325KfZI-P-34" value="trains" style="rhombus;whiteSpace=wrap;html=1;" parent="1" vertex="1">
          <mxGeometry x="635" y="225" width="60" height="60" as="geometry" />
        </mxCell>
        <mxCell id="1rexJfYxTeG325KfZI-P-35" value="" style="endArrow=none;html=1;rounded=0;entryX=0.25;entryY=1;entryDx=0;entryDy=0;exitX=0.5;exitY=0;exitDx=0;exitDy=0;" parent="1" source="1rexJfYxTeG325KfZI-P-34" target="1rexJfYxTeG325KfZI-P-13" edge="1">
          <mxGeometry width="50" height="50" relative="1" as="geometry">
            <mxPoint x="722" y="390" as="sourcePoint" />
            <mxPoint x="690" y="346" as="targetPoint" />
          </mxGeometry>
        </mxCell>
        <mxCell id="1rexJfYxTeG325KfZI-P-37" value="" style="endArrow=none;html=1;rounded=0;entryX=0;entryY=0.5;entryDx=0;entryDy=0;exitX=1;exitY=0.5;exitDx=0;exitDy=0;" parent="1" source="1rexJfYxTeG325KfZI-P-19" target="1rexJfYxTeG325KfZI-P-11" edge="1">
          <mxGeometry width="50" height="50" relative="1" as="geometry">
            <mxPoint x="240" y="340" as="sourcePoint" />
            <mxPoint x="227" y="360" as="targetPoint" />
          </mxGeometry>
        </mxCell>
        <mxCell id="1rexJfYxTeG325KfZI-P-38" value="" style="endArrow=none;html=1;rounded=0;entryX=0;entryY=0.5;entryDx=0;entryDy=0;exitX=1;exitY=0.5;exitDx=0;exitDy=0;" parent="1" source="1rexJfYxTeG325KfZI-P-39" target="1rexJfYxTeG325KfZI-P-19" edge="1">
          <mxGeometry width="50" height="50" relative="1" as="geometry">
            <mxPoint x="150" y="340" as="sourcePoint" />
            <mxPoint x="140" y="320" as="targetPoint" />
          </mxGeometry>
        </mxCell>
        <mxCell id="1rexJfYxTeG325KfZI-P-39" value="spaceship" style="rounded=0;whiteSpace=wrap;html=1;" parent="1" vertex="1">
          <mxGeometry x="30" y="310" width="110" height="40" as="geometry" />
        </mxCell>
        <mxCell id="1rexJfYxTeG325KfZI-P-40" value="spacecraft_location" style="rounded=0;whiteSpace=wrap;html=1;" parent="1" vertex="1">
          <mxGeometry x="-280" y="330" width="110" height="40" as="geometry" />
        </mxCell>
        <mxCell id="1rexJfYxTeG325KfZI-P-43" value="was in" style="rhombus;whiteSpace=wrap;html=1;" parent="1" vertex="1">
          <mxGeometry x="-100" y="345" width="50" height="50" as="geometry" />
        </mxCell>
        <mxCell id="1rexJfYxTeG325KfZI-P-44" value="" style="endArrow=none;html=1;rounded=0;entryX=0;entryY=0.75;entryDx=0;entryDy=0;exitX=1;exitY=0.5;exitDx=0;exitDy=0;" parent="1" source="1rexJfYxTeG325KfZI-P-43" target="1rexJfYxTeG325KfZI-P-39" edge="1">
          <mxGeometry width="50" height="50" relative="1" as="geometry">
            <mxPoint x="-20" y="360" as="sourcePoint" />
            <mxPoint x="30" y="390" as="targetPoint" />
          </mxGeometry>
        </mxCell>
        <mxCell id="1rexJfYxTeG325KfZI-P-46" value="" style="endArrow=none;html=1;rounded=0;exitX=1;exitY=1;exitDx=0;exitDy=0;" parent="1" source="1rexJfYxTeG325KfZI-P-40" target="1rexJfYxTeG325KfZI-P-43" edge="1">
          <mxGeometry width="50" height="50" relative="1" as="geometry">
            <mxPoint x="-140" y="419.5" as="sourcePoint" />
            <mxPoint x="-90" y="419.5" as="targetPoint" />
          </mxGeometry>
        </mxCell>
        <mxCell id="1rexJfYxTeG325KfZI-P-47" value="" style="endArrow=none;html=1;rounded=0;entryX=0.5;entryY=1;entryDx=0;entryDy=0;exitX=0.5;exitY=0;exitDx=0;exitDy=0;" parent="1" source="1rexJfYxTeG325KfZI-P-48" target="1rexJfYxTeG325KfZI-P-19" edge="1">
          <mxGeometry width="50" height="50" relative="1" as="geometry">
            <mxPoint x="220" y="410" as="sourcePoint" />
            <mxPoint x="220" y="440" as="targetPoint" />
          </mxGeometry>
        </mxCell>
        <mxCell id="1rexJfYxTeG325KfZI-P-48" value="station" style="rounded=0;whiteSpace=wrap;html=1;" parent="1" vertex="1">
          <mxGeometry x="165" y="375" width="110" height="40" as="geometry" />
        </mxCell>
        <mxCell id="1rexJfYxTeG325KfZI-P-51" value="Manager" style="rounded=0;whiteSpace=wrap;html=1;" parent="1" vertex="1">
          <mxGeometry x="770" y="30" width="110" height="40" as="geometry" />
        </mxCell>
        <mxCell id="1rexJfYxTeG325KfZI-P-52" value="" style="endArrow=none;html=1;rounded=0;exitX=1;exitY=0.5;exitDx=0;exitDy=0;entryX=0;entryY=0.5;entryDx=0;entryDy=0;" parent="1" source="1rexJfYxTeG325KfZI-P-21" target="1rexJfYxTeG325KfZI-P-51" edge="1">
          <mxGeometry width="50" height="50" relative="1" as="geometry">
            <mxPoint x="730" y="49.5" as="sourcePoint" />
            <mxPoint x="780" y="49.5" as="targetPoint" />
          </mxGeometry>
        </mxCell>
        <mxCell id="1rexJfYxTeG325KfZI-P-55" value="manages" style="rhombus;whiteSpace=wrap;html=1;" parent="1" vertex="1">
          <mxGeometry x="795" y="110" width="60" height="60" as="geometry" />
        </mxCell>
        <mxCell id="1rexJfYxTeG325KfZI-P-57" value="Department" style="rounded=0;whiteSpace=wrap;html=1;" parent="1" vertex="1">
          <mxGeometry x="805" y="245" width="110" height="40" as="geometry" />
        </mxCell>
        <mxCell id="1rexJfYxTeG325KfZI-P-58" value="includes" style="rhombus;whiteSpace=wrap;html=1;" parent="1" vertex="1">
          <mxGeometry x="715" y="85" width="60" height="60" as="geometry" />
        </mxCell>
        <mxCell id="1rexJfYxTeG325KfZI-P-62" value="branched to" style="rhombus;whiteSpace=wrap;html=1;" parent="1" vertex="1">
          <mxGeometry x="850" y="340" width="70" height="70" as="geometry" />
        </mxCell>
        <mxCell id="1rexJfYxTeG325KfZI-P-63" value="" style="endArrow=none;html=1;rounded=0;entryX=0.5;entryY=1;entryDx=0;entryDy=0;exitX=0.5;exitY=0;exitDx=0;exitDy=0;" parent="1" source="1rexJfYxTeG325KfZI-P-64" target="1rexJfYxTeG325KfZI-P-62" edge="1">
          <mxGeometry width="50" height="50" relative="1" as="geometry">
            <mxPoint x="780" y="430" as="sourcePoint" />
            <mxPoint x="775" y="415" as="targetPoint" />
          </mxGeometry>
        </mxCell>
        <mxCell id="1rexJfYxTeG325KfZI-P-64" value="branch" style="rounded=0;whiteSpace=wrap;html=1;" parent="1" vertex="1">
          <mxGeometry x="840" y="460" width="110" height="40" as="geometry" />
        </mxCell>
        <mxCell id="1rexJfYxTeG325KfZI-P-66" value="Branch Moderator" style="rounded=0;whiteSpace=wrap;html=1;" parent="1" vertex="1">
          <mxGeometry x="820" y="680" width="110" height="40" as="geometry" />
        </mxCell>
        <mxCell id="1rexJfYxTeG325KfZI-P-67" value="moderates" style="rhombus;whiteSpace=wrap;html=1;" parent="1" vertex="1">
          <mxGeometry x="855" y="550" width="60" height="60" as="geometry" />
        </mxCell>
        <mxCell id="1rexJfYxTeG325KfZI-P-70" value="hires" style="rhombus;whiteSpace=wrap;html=1;" parent="1" vertex="1">
          <mxGeometry x="930" y="40" width="60" height="60" as="geometry" />
        </mxCell>
        <mxCell id="1rexJfYxTeG325KfZI-P-71" value="" style="endArrow=none;html=1;rounded=0;exitX=1;exitY=0.5;exitDx=0;exitDy=0;entryX=0;entryY=0;entryDx=0;entryDy=0;" parent="1" source="1rexJfYxTeG325KfZI-P-51" target="1rexJfYxTeG325KfZI-P-70" edge="1">
          <mxGeometry width="50" height="50" relative="1" as="geometry">
            <mxPoint x="950" y="49.5" as="sourcePoint" />
            <mxPoint x="990" y="49.5" as="targetPoint" />
          </mxGeometry>
        </mxCell>
        <mxCell id="1rexJfYxTeG325KfZI-P-73" value="Applicant" style="rounded=0;whiteSpace=wrap;html=1;" parent="1" vertex="1">
          <mxGeometry x="1010" y="150" width="110" height="40" as="geometry" />
        </mxCell>
        <mxCell id="1rexJfYxTeG325KfZI-P-75" value="Manufacturer" style="rounded=0;whiteSpace=wrap;html=1;" parent="1" vertex="1">
          <mxGeometry y="80" width="110" height="40" as="geometry" />
        </mxCell>
        <mxCell id="1rexJfYxTeG325KfZI-P-76" value="" style="endArrow=none;html=1;rounded=0;exitX=0.5;exitY=1;exitDx=0;exitDy=0;entryX=0.5;entryY=0;entryDx=0;entryDy=0;" parent="1" source="1rexJfYxTeG325KfZI-P-75" target="1rexJfYxTeG325KfZI-P-20" edge="1">
          <mxGeometry width="50" height="50" relative="1" as="geometry">
            <mxPoint x="40" y="165" as="sourcePoint" />
            <mxPoint x="60" y="190" as="targetPoint" />
          </mxGeometry>
        </mxCell>
        <mxCell id="1rexJfYxTeG325KfZI-P-78" value="" style="endArrow=none;html=1;rounded=0;entryX=0.25;entryY=1;entryDx=0;entryDy=0;exitX=0.5;exitY=0;exitDx=0;exitDy=0;" parent="1" source="1rexJfYxTeG325KfZI-P-79" target="1rexJfYxTeG325KfZI-P-11" edge="1">
          <mxGeometry width="50" height="50" relative="1" as="geometry">
            <mxPoint x="353" y="450" as="sourcePoint" />
            <mxPoint x="390" y="390" as="targetPoint" />
          </mxGeometry>
        </mxCell>
        <mxCell id="1rexJfYxTeG325KfZI-P-79" value="discovers" style="rhombus;whiteSpace=wrap;html=1;" parent="1" vertex="1">
          <mxGeometry x="300" y="390" width="60" height="60" as="geometry" />
        </mxCell>
        <mxCell id="1rexJfYxTeG325KfZI-P-90" value="" style="rounded=0;whiteSpace=wrap;html=1;dashed=1;dashPattern=8 8;" parent="1" vertex="1">
          <mxGeometry x="-105" y="570" width="745" height="80" as="geometry" />
        </mxCell>
        <mxCell id="1rexJfYxTeG325KfZI-P-92" value="Stars" style="rounded=0;whiteSpace=wrap;html=1;" parent="1" vertex="1">
          <mxGeometry x="460" y="590" width="110" height="40" as="geometry" />
        </mxCell>
        <mxCell id="1rexJfYxTeG325KfZI-P-93" value="orbit" style="rhombus;whiteSpace=wrap;html=1;" parent="1" vertex="1">
          <mxGeometry x="280" y="585" width="50" height="50" as="geometry" />
        </mxCell>
        <mxCell id="1rexJfYxTeG325KfZI-P-96" value="planets" style="rounded=0;whiteSpace=wrap;html=1;" parent="1" vertex="1">
          <mxGeometry x="30" y="590" width="110" height="40" as="geometry" />
        </mxCell>
        <mxCell id="1rexJfYxTeG325KfZI-P-102" value="galaxy" style="rounded=0;whiteSpace=wrap;html=1;" parent="1" vertex="1">
          <mxGeometry x="30" y="770" width="110" height="40" as="geometry" />
        </mxCell>
        <mxCell id="1rexJfYxTeG325KfZI-P-103" value="blackholes" style="rounded=0;whiteSpace=wrap;html=1;" parent="1" vertex="1">
          <mxGeometry x="460" y="960" width="110" height="40" as="geometry" />
        </mxCell>
        <mxCell id="1rexJfYxTeG325KfZI-P-104" value="belong to" style="rhombus;whiteSpace=wrap;html=1;" parent="1" vertex="1">
          <mxGeometry x="190" y="690" width="50" height="50" as="geometry" />
        </mxCell>
        <mxCell id="1rexJfYxTeG325KfZI-P-105" value="attracts" style="rhombus;whiteSpace=wrap;html=1;" parent="1" vertex="1">
          <mxGeometry x="480" y="880" width="50" height="50" as="geometry" />
        </mxCell>
        <mxCell id="1rexJfYxTeG325KfZI-P-107" value="" style="endArrow=none;html=1;rounded=0;entryX=1;entryY=1;entryDx=0;entryDy=0;" parent="1" source="1rexJfYxTeG325KfZI-P-103" target="1rexJfYxTeG325KfZI-P-105" edge="1">
          <mxGeometry width="50" height="50" relative="1" as="geometry">
            <mxPoint x="350" y="782" as="sourcePoint" />
            <mxPoint x="390" y="740" as="targetPoint" />
          </mxGeometry>
        </mxCell>
        <mxCell id="1rexJfYxTeG325KfZI-P-109" value="Meteor" style="rounded=0;whiteSpace=wrap;html=1;" parent="1" vertex="1">
          <mxGeometry x="-390" y="540" width="110" height="40" as="geometry" />
        </mxCell>
        <mxCell id="1rexJfYxTeG325KfZI-P-110" value="" style="endArrow=none;html=1;rounded=0;entryX=0;entryY=0.5;entryDx=0;entryDy=0;" parent="1" source="1rexJfYxTeG325KfZI-P-111" target="1rexJfYxTeG325KfZI-P-96" edge="1">
          <mxGeometry width="50" height="50" relative="1" as="geometry">
            <mxPoint x="120" y="663" as="sourcePoint" />
            <mxPoint x="130" y="610" as="targetPoint" />
          </mxGeometry>
        </mxCell>
        <mxCell id="1rexJfYxTeG325KfZI-P-111" value="hit" style="rhombus;whiteSpace=wrap;html=1;" parent="1" vertex="1">
          <mxGeometry x="-230" y="540" width="50" height="50" as="geometry" />
        </mxCell>
        <mxCell id="1rexJfYxTeG325KfZI-P-114" value="" style="endArrow=classic;html=1;rounded=0;entryX=0;entryY=0.5;entryDx=0;entryDy=0;exitX=1;exitY=0.5;exitDx=0;exitDy=0;" parent="1" source="1rexJfYxTeG325KfZI-P-1" target="1rexJfYxTeG325KfZI-P-21" edge="1">
          <mxGeometry width="50" height="50" relative="1" as="geometry">
            <mxPoint x="390" y="110" as="sourcePoint" />
            <mxPoint x="440" y="60" as="targetPoint" />
          </mxGeometry>
        </mxCell>
        <mxCell id="1rexJfYxTeG325KfZI-P-116" value="" style="shape=flexArrow;endArrow=classic;html=1;rounded=0;entryX=0.156;entryY=0.38;entryDx=0;entryDy=0;entryPerimeter=0;exitX=1;exitY=1;exitDx=0;exitDy=0;width=4.444444444444445;endSize=5.2444444444444445;" parent="1" source="1rexJfYxTeG325KfZI-P-1" target="1rexJfYxTeG325KfZI-P-58" edge="1">
          <mxGeometry width="50" height="50" relative="1" as="geometry">
            <mxPoint x="600" y="135" as="sourcePoint" />
            <mxPoint x="650" y="85" as="targetPoint" />
          </mxGeometry>
        </mxCell>
        <mxCell id="1rexJfYxTeG325KfZI-P-119" value="" style="shape=link;html=1;rounded=0;entryX=0.105;entryY=-0.092;entryDx=0;entryDy=0;entryPerimeter=0;exitX=1;exitY=1;exitDx=0;exitDy=0;" parent="1" source="1rexJfYxTeG325KfZI-P-58" target="1rexJfYxTeG325KfZI-P-57" edge="1">
          <mxGeometry width="100" relative="1" as="geometry">
            <mxPoint x="650" y="199" as="sourcePoint" />
            <mxPoint x="750" y="198.89" as="targetPoint" />
          </mxGeometry>
        </mxCell>
        <mxCell id="1rexJfYxTeG325KfZI-P-122" value="" style="endArrow=classic;html=1;rounded=0;entryX=0.656;entryY=0.898;entryDx=0;entryDy=0;entryPerimeter=0;exitX=0.5;exitY=0;exitDx=0;exitDy=0;" parent="1" source="1rexJfYxTeG325KfZI-P-73" target="1rexJfYxTeG325KfZI-P-70" edge="1">
          <mxGeometry width="50" height="50" relative="1" as="geometry">
            <mxPoint x="950" y="170" as="sourcePoint" />
            <mxPoint x="1000" y="120" as="targetPoint" />
          </mxGeometry>
        </mxCell>
        <mxCell id="1rexJfYxTeG325KfZI-P-123" value="" style="shape=link;html=1;rounded=0;exitX=0.25;exitY=1;exitDx=0;exitDy=0;entryX=0.5;entryY=0;entryDx=0;entryDy=0;" parent="1" source="1rexJfYxTeG325KfZI-P-57" target="1rexJfYxTeG325KfZI-P-62" edge="1">
          <mxGeometry width="100" relative="1" as="geometry">
            <mxPoint x="880" y="320" as="sourcePoint" />
            <mxPoint x="980" y="320" as="targetPoint" />
          </mxGeometry>
        </mxCell>
        <mxCell id="1rexJfYxTeG325KfZI-P-124" value="" style="shape=flexArrow;endArrow=classic;html=1;rounded=0;entryX=0.5;entryY=0;entryDx=0;entryDy=0;exitX=0.5;exitY=1;exitDx=0;exitDy=0;width=4.444444444444445;endSize=5.2444444444444445;" parent="1" source="1rexJfYxTeG325KfZI-P-64" target="1rexJfYxTeG325KfZI-P-67" edge="1">
          <mxGeometry width="50" height="50" relative="1" as="geometry">
            <mxPoint x="955.5" y="497" as="sourcePoint" />
            <mxPoint x="1014.5" y="550" as="targetPoint" />
          </mxGeometry>
        </mxCell>
        <mxCell id="1rexJfYxTeG325KfZI-P-125" value="" style="shape=flexArrow;endArrow=classic;html=1;rounded=0;entryX=0.5;entryY=1;entryDx=0;entryDy=0;exitX=0.5;exitY=0;exitDx=0;exitDy=0;" parent="1" source="1rexJfYxTeG325KfZI-P-66" target="1rexJfYxTeG325KfZI-P-67" edge="1">
          <mxGeometry width="50" height="50" relative="1" as="geometry">
            <mxPoint x="695" y="650" as="sourcePoint" />
            <mxPoint x="745" y="600" as="targetPoint" />
          </mxGeometry>
        </mxCell>
        <mxCell id="1rexJfYxTeG325KfZI-P-126" value="" style="shape=flexArrow;endArrow=classic;html=1;rounded=0;entryX=0.5;entryY=1;entryDx=0;entryDy=0;exitX=0.5;exitY=0;exitDx=0;exitDy=0;width=4.444444444444445;endSize=5.2444444444444445;" parent="1" source="1rexJfYxTeG325KfZI-P-57" target="1rexJfYxTeG325KfZI-P-55" edge="1">
          <mxGeometry width="50" height="50" relative="1" as="geometry">
            <mxPoint x="880" y="170" as="sourcePoint" />
            <mxPoint x="905" y="220" as="targetPoint" />
          </mxGeometry>
        </mxCell>
        <mxCell id="1rexJfYxTeG325KfZI-P-127" value="" style="shape=flexArrow;endArrow=classic;html=1;rounded=0;entryX=0.5;entryY=0;entryDx=0;entryDy=0;exitX=0.5;exitY=1;exitDx=0;exitDy=0;width=4.444444444444445;endSize=5.2444444444444445;" parent="1" source="1rexJfYxTeG325KfZI-P-51" target="1rexJfYxTeG325KfZI-P-55" edge="1">
          <mxGeometry width="50" height="50" relative="1" as="geometry">
            <mxPoint x="870" y="160" as="sourcePoint" />
            <mxPoint x="870" y="110" as="targetPoint" />
          </mxGeometry>
        </mxCell>
        <mxCell id="1rexJfYxTeG325KfZI-P-128" value="" style="shape=flexArrow;endArrow=classic;html=1;rounded=0;entryX=0;entryY=1;entryDx=0;entryDy=0;exitX=1;exitY=0.5;exitDx=0;exitDy=0;" parent="1" source="1rexJfYxTeG325KfZI-P-10" target="1rexJfYxTeG325KfZI-P-34" edge="1">
          <mxGeometry width="50" height="50" relative="1" as="geometry">
            <mxPoint x="540" y="460" as="sourcePoint" />
            <mxPoint x="590" y="410" as="targetPoint" />
          </mxGeometry>
        </mxCell>
        <mxCell id="1rexJfYxTeG325KfZI-P-129" value="" style="shape=link;html=1;rounded=0;exitX=1;exitY=0.5;exitDx=0;exitDy=0;entryX=0;entryY=0.5;entryDx=0;entryDy=0;" parent="1" source="1rexJfYxTeG325KfZI-P-9" target="1rexJfYxTeG325KfZI-P-23" edge="1">
          <mxGeometry width="100" relative="1" as="geometry">
            <mxPoint x="350" y="80" as="sourcePoint" />
            <mxPoint x="450" y="80" as="targetPoint" />
          </mxGeometry>
        </mxCell>
        <mxCell id="1rexJfYxTeG325KfZI-P-132" value="" style="shape=link;html=1;rounded=0;entryX=0;entryY=1;entryDx=0;entryDy=0;exitX=0.5;exitY=0;exitDx=0;exitDy=0;" parent="1" source="1rexJfYxTeG325KfZI-P-102" target="1rexJfYxTeG325KfZI-P-79" edge="1">
          <mxGeometry width="100" relative="1" as="geometry">
            <mxPoint x="284.03999999999996" y="548.8000000000002" as="sourcePoint" />
            <mxPoint x="320" y="530" as="targetPoint" />
          </mxGeometry>
        </mxCell>
        <mxCell id="1rexJfYxTeG325KfZI-P-133" value="" style="shape=link;html=1;rounded=0;exitX=0.5;exitY=1;exitDx=0;exitDy=0;entryX=0.416;entryY=-0.036;entryDx=0;entryDy=0;entryPerimeter=0;" parent="1" source="1rexJfYxTeG325KfZI-P-20" target="1rexJfYxTeG325KfZI-P-39" edge="1">
          <mxGeometry width="100" relative="1" as="geometry">
            <mxPoint x="100" y="278.89" as="sourcePoint" />
            <mxPoint x="200" y="278.89" as="targetPoint" />
          </mxGeometry>
        </mxCell>
        <mxCell id="1rexJfYxTeG325KfZI-P-136" value="" style="shape=flexArrow;endArrow=classic;html=1;rounded=0;entryX=0.5;entryY=0;entryDx=0;entryDy=0;exitX=0.484;exitY=0.993;exitDx=0;exitDy=0;exitPerimeter=0;width=5.882352941176471;endSize=4.070588235294117;" parent="1" source="1rexJfYxTeG325KfZI-P-90" target="1rexJfYxTeG325KfZI-P-104" edge="1">
          <mxGeometry width="50" height="50" relative="1" as="geometry">
            <mxPoint x="249.995" y="650" as="sourcePoint" />
            <mxPoint x="200.37" y="697.94" as="targetPoint" />
          </mxGeometry>
        </mxCell>
        <mxCell id="1rexJfYxTeG325KfZI-P-138" value="" style="endArrow=classic;html=1;rounded=0;entryX=1;entryY=0.5;entryDx=0;entryDy=0;exitX=0;exitY=0;exitDx=0;exitDy=0;" parent="1" source="1rexJfYxTeG325KfZI-P-39" target="1rexJfYxTeG325KfZI-P-22" edge="1">
          <mxGeometry width="50" height="50" relative="1" as="geometry">
            <mxPoint y="300" as="sourcePoint" />
            <mxPoint x="50" y="300" as="targetPoint" />
          </mxGeometry>
        </mxCell>
        <mxCell id="1rexJfYxTeG325KfZI-P-139" value="" style="endArrow=classic;html=1;rounded=0;entryX=0;entryY=0.5;entryDx=0;entryDy=0;exitX=1;exitY=0;exitDx=0;exitDy=0;" parent="1" source="1rexJfYxTeG325KfZI-P-40" target="1rexJfYxTeG325KfZI-P-22" edge="1">
          <mxGeometry width="50" height="50" relative="1" as="geometry">
            <mxPoint x="-100" y="280" as="sourcePoint" />
            <mxPoint x="-150" y="265" as="targetPoint" />
          </mxGeometry>
        </mxCell>
        <mxCell id="1rexJfYxTeG325KfZI-P-141" value="" style="endArrow=classic;html=1;rounded=0;entryX=0;entryY=0.5;entryDx=0;entryDy=0;exitX=1;exitY=0.5;exitDx=0;exitDy=0;" parent="1" source="1rexJfYxTeG325KfZI-P-109" target="1rexJfYxTeG325KfZI-P-111" edge="1">
          <mxGeometry width="50" height="50" relative="1" as="geometry">
            <mxPoint x="30" y="620" as="sourcePoint" />
            <mxPoint x="85" y="620" as="targetPoint" />
          </mxGeometry>
        </mxCell>
        <mxCell id="q4M30ukwCYL39gT3UEou-1" value="" style="endArrow=none;html=1;rounded=0;exitX=0;exitY=0;exitDx=0;exitDy=0;entryX=1;entryY=1;entryDx=0;entryDy=0;" parent="1" source="1rexJfYxTeG325KfZI-P-1" target="q4M30ukwCYL39gT3UEou-2" edge="1">
          <mxGeometry width="50" height="50" relative="1" as="geometry">
            <mxPoint x="490" y="10" as="sourcePoint" />
            <mxPoint x="470" y="-30" as="targetPoint" />
          </mxGeometry>
        </mxCell>
        <mxCell id="q4M30ukwCYL39gT3UEou-2" value="ID" style="ellipse;whiteSpace=wrap;html=1;fontStyle=4" parent="1" vertex="1">
          <mxGeometry x="400" y="-90" width="70" height="30" as="geometry" />
        </mxCell>
        <mxCell id="q4M30ukwCYL39gT3UEou-3" value="name" style="ellipse;whiteSpace=wrap;html=1;" parent="1" vertex="1">
          <mxGeometry x="425" y="-130" width="70" height="30" as="geometry" />
        </mxCell>
        <mxCell id="q4M30ukwCYL39gT3UEou-4" value="age" style="ellipse;whiteSpace=wrap;html=1;" parent="1" vertex="1">
          <mxGeometry x="460" y="-160" width="70" height="30" as="geometry" />
        </mxCell>
        <mxCell id="q4M30ukwCYL39gT3UEou-5" value="work schedule" style="ellipse;whiteSpace=wrap;html=1;" parent="1" vertex="1">
          <mxGeometry x="630" y="-110" width="70" height="30" as="geometry" />
        </mxCell>
        <mxCell id="q4M30ukwCYL39gT3UEou-6" value="" style="endArrow=none;html=1;rounded=0;exitX=0.373;exitY=-0.027;exitDx=0;exitDy=0;exitPerimeter=0;entryX=0.5;entryY=1;entryDx=0;entryDy=0;" parent="1" source="1rexJfYxTeG325KfZI-P-1" target="q4M30ukwCYL39gT3UEou-13" edge="1">
          <mxGeometry width="50" height="50" relative="1" as="geometry">
            <mxPoint x="600" y="-20" as="sourcePoint" />
            <mxPoint x="570" y="-70" as="targetPoint" />
          </mxGeometry>
        </mxCell>
        <mxCell id="q4M30ukwCYL39gT3UEou-7" value="" style="endArrow=none;html=1;rounded=0;exitX=0.25;exitY=0;exitDx=0;exitDy=0;entryX=0.5;entryY=1;entryDx=0;entryDy=0;" parent="1" source="1rexJfYxTeG325KfZI-P-1" target="q4M30ukwCYL39gT3UEou-4" edge="1">
          <mxGeometry width="50" height="50" relative="1" as="geometry">
            <mxPoint x="560" as="sourcePoint" />
            <mxPoint x="530" y="-50" as="targetPoint" />
          </mxGeometry>
        </mxCell>
        <mxCell id="q4M30ukwCYL39gT3UEou-8" value="" style="endArrow=none;html=1;rounded=0;exitX=0.75;exitY=0;exitDx=0;exitDy=0;entryX=0;entryY=1;entryDx=0;entryDy=0;" parent="1" source="1rexJfYxTeG325KfZI-P-1" target="q4M30ukwCYL39gT3UEou-11" edge="1">
          <mxGeometry width="50" height="50" relative="1" as="geometry">
            <mxPoint x="640" y="-40" as="sourcePoint" />
            <mxPoint x="640" y="-90" as="targetPoint" />
          </mxGeometry>
        </mxCell>
        <mxCell id="q4M30ukwCYL39gT3UEou-9" value="" style="endArrow=none;html=1;rounded=0;exitX=0.32;exitY=0.987;exitDx=0;exitDy=0;entryX=1;entryY=0;entryDx=0;entryDy=0;exitPerimeter=0;" parent="1" source="q4M30ukwCYL39gT3UEou-17" target="1rexJfYxTeG325KfZI-P-1" edge="1">
          <mxGeometry width="50" height="50" relative="1" as="geometry">
            <mxPoint x="690" y="-10" as="sourcePoint" />
            <mxPoint x="660" y="-60" as="targetPoint" />
          </mxGeometry>
        </mxCell>
        <mxCell id="q4M30ukwCYL39gT3UEou-10" value="" style="endArrow=none;html=1;rounded=0;exitX=0.113;exitY=-0.013;exitDx=0;exitDy=0;entryX=0.5;entryY=1;entryDx=0;entryDy=0;exitPerimeter=0;" parent="1" source="1rexJfYxTeG325KfZI-P-1" target="q4M30ukwCYL39gT3UEou-3" edge="1">
          <mxGeometry width="50" height="50" relative="1" as="geometry">
            <mxPoint x="630" y="-20" as="sourcePoint" />
            <mxPoint x="600" y="-70" as="targetPoint" />
          </mxGeometry>
        </mxCell>
        <mxCell id="q4M30ukwCYL39gT3UEou-11" value="languages spoken" style="ellipse;whiteSpace=wrap;html=1;dashed=1;" parent="1" vertex="1">
          <mxGeometry x="620" y="-150" width="70" height="30" as="geometry" />
        </mxCell>
        <mxCell id="q4M30ukwCYL39gT3UEou-12" value="salary" style="ellipse;whiteSpace=wrap;html=1;" parent="1" vertex="1">
          <mxGeometry x="540" y="-230" width="70" height="30" as="geometry" />
        </mxCell>
        <mxCell id="q4M30ukwCYL39gT3UEou-13" value="phone" style="ellipse;whiteSpace=wrap;html=1;dashed=1;" parent="1" vertex="1">
          <mxGeometry x="500" y="-200" width="70" height="30" as="geometry" />
        </mxCell>
        <mxCell id="q4M30ukwCYL39gT3UEou-14" value="" style="endArrow=none;html=1;rounded=0;exitX=0.92;exitY=-0.067;exitDx=0;exitDy=0;entryX=0.354;entryY=1.12;entryDx=0;entryDy=0;entryPerimeter=0;exitPerimeter=0;" parent="1" source="1rexJfYxTeG325KfZI-P-1" target="q4M30ukwCYL39gT3UEou-5" edge="1">
          <mxGeometry width="50" height="50" relative="1" as="geometry">
            <mxPoint x="660" y="-10" as="sourcePoint" />
            <mxPoint x="680" y="-100" as="targetPoint" />
          </mxGeometry>
        </mxCell>
        <mxCell id="q4M30ukwCYL39gT3UEou-15" value="" style="endArrow=none;html=1;rounded=0;exitX=0.5;exitY=0;exitDx=0;exitDy=0;entryX=0.5;entryY=1;entryDx=0;entryDy=0;" parent="1" source="1rexJfYxTeG325KfZI-P-1" target="q4M30ukwCYL39gT3UEou-12" edge="1">
          <mxGeometry width="50" height="50" relative="1" as="geometry">
            <mxPoint x="715" y="-60" as="sourcePoint" />
            <mxPoint x="685" y="-110" as="targetPoint" />
          </mxGeometry>
        </mxCell>
        <mxCell id="q4M30ukwCYL39gT3UEou-17" value="nationality" style="ellipse;whiteSpace=wrap;html=1;dashed=1;" parent="1" vertex="1">
          <mxGeometry x="710" y="-130" width="70" height="30" as="geometry" />
        </mxCell>
        <mxCell id="q4M30ukwCYL39gT3UEou-18" value="start date" style="ellipse;whiteSpace=wrap;html=1;" parent="1" vertex="1">
          <mxGeometry x="590" y="-200" width="70" height="30" as="geometry" />
        </mxCell>
        <mxCell id="q4M30ukwCYL39gT3UEou-19" value="" style="endArrow=none;html=1;rounded=0;exitX=0.647;exitY=-0.027;exitDx=0;exitDy=0;entryX=0.5;entryY=1;entryDx=0;entryDy=0;exitPerimeter=0;" parent="1" source="1rexJfYxTeG325KfZI-P-1" target="q4M30ukwCYL39gT3UEou-18" edge="1">
          <mxGeometry width="50" height="50" relative="1" as="geometry">
            <mxPoint x="600" y="30" as="sourcePoint" />
            <mxPoint x="630" y="-114" as="targetPoint" />
          </mxGeometry>
        </mxCell>
        <mxCell id="q4M30ukwCYL39gT3UEou-21" value="ID" style="ellipse;whiteSpace=wrap;html=1;fontStyle=4" parent="1" vertex="1">
          <mxGeometry x="710" y="-50" width="70" height="30" as="geometry" />
        </mxCell>
        <mxCell id="q4M30ukwCYL39gT3UEou-22" value="" style="endArrow=none;html=1;rounded=0;exitX=0;exitY=0;exitDx=0;exitDy=0;entryX=0.5;entryY=1;entryDx=0;entryDy=0;" parent="1" source="1rexJfYxTeG325KfZI-P-51" target="q4M30ukwCYL39gT3UEou-21" edge="1">
          <mxGeometry width="50" height="50" relative="1" as="geometry">
            <mxPoint x="830" y="30" as="sourcePoint" />
            <mxPoint x="780" y="-4" as="targetPoint" />
          </mxGeometry>
        </mxCell>
        <mxCell id="q4M30ukwCYL39gT3UEou-24" value="name" style="ellipse;whiteSpace=wrap;html=1;" parent="1" vertex="1">
          <mxGeometry x="760" y="-80" width="70" height="30" as="geometry" />
        </mxCell>
        <mxCell id="q4M30ukwCYL39gT3UEou-25" value="" style="endArrow=none;html=1;rounded=0;exitX=0.25;exitY=0;exitDx=0;exitDy=0;entryX=0.5;entryY=1;entryDx=0;entryDy=0;" parent="1" source="1rexJfYxTeG325KfZI-P-51" target="q4M30ukwCYL39gT3UEou-24" edge="1">
          <mxGeometry width="50" height="50" relative="1" as="geometry">
            <mxPoint x="914" y="49" as="sourcePoint" />
            <mxPoint x="850" y="-20" as="targetPoint" />
          </mxGeometry>
        </mxCell>
        <mxCell id="q4M30ukwCYL39gT3UEou-26" value="phone" style="ellipse;whiteSpace=wrap;html=1;dashed=1;" parent="1" vertex="1">
          <mxGeometry x="795" y="-110" width="70" height="30" as="geometry" />
        </mxCell>
        <mxCell id="q4M30ukwCYL39gT3UEou-27" value="" style="endArrow=none;html=1;rounded=0;exitX=0.404;exitY=-0.03;exitDx=0;exitDy=0;exitPerimeter=0;entryX=0.62;entryY=1.053;entryDx=0;entryDy=0;entryPerimeter=0;" parent="1" source="1rexJfYxTeG325KfZI-P-51" target="q4M30ukwCYL39gT3UEou-26" edge="1">
          <mxGeometry width="50" height="50" relative="1" as="geometry">
            <mxPoint x="905" y="49" as="sourcePoint" />
            <mxPoint x="880" y="-99" as="targetPoint" />
          </mxGeometry>
        </mxCell>
        <mxCell id="q4M30ukwCYL39gT3UEou-28" value="salary" style="ellipse;whiteSpace=wrap;html=1;" parent="1" vertex="1">
          <mxGeometry x="860" y="-130" width="70" height="30" as="geometry" />
        </mxCell>
        <mxCell id="q4M30ukwCYL39gT3UEou-29" value="" style="endArrow=none;html=1;rounded=0;exitX=0.5;exitY=0;exitDx=0;exitDy=0;entryX=0;entryY=1;entryDx=0;entryDy=0;" parent="1" source="1rexJfYxTeG325KfZI-P-51" target="q4M30ukwCYL39gT3UEou-28" edge="1">
          <mxGeometry width="50" height="50" relative="1" as="geometry">
            <mxPoint x="915" y="90" as="sourcePoint" />
            <mxPoint x="910" y="-90" as="targetPoint" />
          </mxGeometry>
        </mxCell>
        <mxCell id="q4M30ukwCYL39gT3UEou-30" value="experience" style="ellipse;whiteSpace=wrap;html=1;" parent="1" vertex="1">
          <mxGeometry x="880" y="-90" width="70" height="30" as="geometry" />
        </mxCell>
        <mxCell id="q4M30ukwCYL39gT3UEou-31" value="" style="endArrow=none;html=1;rounded=0;exitX=0.75;exitY=0;exitDx=0;exitDy=0;entryX=0;entryY=1;entryDx=0;entryDy=0;" parent="1" source="1rexJfYxTeG325KfZI-P-51" target="q4M30ukwCYL39gT3UEou-30" edge="1">
          <mxGeometry width="50" height="50" relative="1" as="geometry">
            <mxPoint x="850" y="54" as="sourcePoint" />
            <mxPoint x="895" y="-80" as="targetPoint" />
          </mxGeometry>
        </mxCell>
        <mxCell id="q4M30ukwCYL39gT3UEou-32" value="DID" style="ellipse;whiteSpace=wrap;html=1;fontStyle=4" parent="1" vertex="1">
          <mxGeometry x="990" y="220" width="70" height="30" as="geometry" />
        </mxCell>
        <mxCell id="q4M30ukwCYL39gT3UEou-33" value="name" style="ellipse;whiteSpace=wrap;html=1;" parent="1" vertex="1">
          <mxGeometry x="990" y="630" width="70" height="30" as="geometry" />
        </mxCell>
        <mxCell id="q4M30ukwCYL39gT3UEou-34" value="contact info" style="ellipse;whiteSpace=wrap;html=1;" parent="1" vertex="1">
          <mxGeometry x="1020" y="465" width="70" height="30" as="geometry" />
        </mxCell>
        <mxCell id="q4M30ukwCYL39gT3UEou-35" value="budget" style="ellipse;whiteSpace=wrap;html=1;" parent="1" vertex="1">
          <mxGeometry x="940" y="190" width="70" height="30" as="geometry" />
        </mxCell>
        <mxCell id="q4M30ukwCYL39gT3UEou-36" value="Description" style="ellipse;whiteSpace=wrap;html=1;" parent="1" vertex="1">
          <mxGeometry x="1070" y="310" width="70" height="30" as="geometry" />
        </mxCell>
        <mxCell id="q4M30ukwCYL39gT3UEou-37" value="name" style="ellipse;whiteSpace=wrap;html=1;" parent="1" vertex="1">
          <mxGeometry x="1050" y="240" width="70" height="30" as="geometry" />
        </mxCell>
        <mxCell id="q4M30ukwCYL39gT3UEou-39" value="" style="endArrow=none;html=1;rounded=0;exitX=1;exitY=0.25;exitDx=0;exitDy=0;entryX=0;entryY=0.5;entryDx=0;entryDy=0;" parent="1" source="1rexJfYxTeG325KfZI-P-64" target="q4M30ukwCYL39gT3UEou-49" edge="1">
          <mxGeometry width="50" height="50" relative="1" as="geometry">
            <mxPoint x="1020" y="540" as="sourcePoint" />
            <mxPoint x="1070" y="490" as="targetPoint" />
          </mxGeometry>
        </mxCell>
        <mxCell id="q4M30ukwCYL39gT3UEou-40" value="" style="endArrow=none;html=1;rounded=0;exitX=1;exitY=0;exitDx=0;exitDy=0;entryX=0.26;entryY=1.027;entryDx=0;entryDy=0;entryPerimeter=0;" parent="1" source="1rexJfYxTeG325KfZI-P-64" target="q4M30ukwCYL39gT3UEou-50" edge="1">
          <mxGeometry width="50" height="50" relative="1" as="geometry">
            <mxPoint x="960" y="460" as="sourcePoint" />
            <mxPoint x="1010" y="410" as="targetPoint" />
          </mxGeometry>
        </mxCell>
        <mxCell id="q4M30ukwCYL39gT3UEou-41" value="" style="endArrow=none;html=1;rounded=0;exitX=0.851;exitY=-0.06;exitDx=0;exitDy=0;exitPerimeter=0;entryX=0.5;entryY=1;entryDx=0;entryDy=0;" parent="1" source="1rexJfYxTeG325KfZI-P-57" target="q4M30ukwCYL39gT3UEou-35" edge="1">
          <mxGeometry width="50" height="50" relative="1" as="geometry">
            <mxPoint x="880" y="220" as="sourcePoint" />
            <mxPoint x="930" y="180" as="targetPoint" />
          </mxGeometry>
        </mxCell>
        <mxCell id="q4M30ukwCYL39gT3UEou-42" value="" style="endArrow=none;html=1;rounded=0;exitX=1;exitY=0.75;exitDx=0;exitDy=0;entryX=0;entryY=0.5;entryDx=0;entryDy=0;" parent="1" source="1rexJfYxTeG325KfZI-P-57" target="q4M30ukwCYL39gT3UEou-36" edge="1">
          <mxGeometry width="50" height="50" relative="1" as="geometry">
            <mxPoint x="990" y="340" as="sourcePoint" />
            <mxPoint x="980" y="300" as="targetPoint" />
          </mxGeometry>
        </mxCell>
        <mxCell id="q4M30ukwCYL39gT3UEou-43" value="" style="endArrow=none;html=1;rounded=0;exitX=1;exitY=0.5;exitDx=0;exitDy=0;entryX=0;entryY=0.5;entryDx=0;entryDy=0;" parent="1" source="1rexJfYxTeG325KfZI-P-57" target="q4M30ukwCYL39gT3UEou-46" edge="1">
          <mxGeometry width="50" height="50" relative="1" as="geometry">
            <mxPoint x="990" y="320" as="sourcePoint" />
            <mxPoint x="1040" y="270" as="targetPoint" />
          </mxGeometry>
        </mxCell>
        <mxCell id="q4M30ukwCYL39gT3UEou-44" value="" style="endArrow=none;html=1;rounded=0;exitX=1;exitY=0.25;exitDx=0;exitDy=0;entryX=0;entryY=0.5;entryDx=0;entryDy=0;" parent="1" source="1rexJfYxTeG325KfZI-P-57" target="q4M30ukwCYL39gT3UEou-37" edge="1">
          <mxGeometry width="50" height="50" relative="1" as="geometry">
            <mxPoint x="1050" y="305" as="sourcePoint" />
            <mxPoint x="1040" y="260" as="targetPoint" />
          </mxGeometry>
        </mxCell>
        <mxCell id="q4M30ukwCYL39gT3UEou-45" value="" style="endArrow=none;html=1;rounded=0;exitX=1;exitY=0;exitDx=0;exitDy=0;entryX=0;entryY=1;entryDx=0;entryDy=0;" parent="1" source="1rexJfYxTeG325KfZI-P-57" target="q4M30ukwCYL39gT3UEou-32" edge="1">
          <mxGeometry width="50" height="50" relative="1" as="geometry">
            <mxPoint x="950" y="275" as="sourcePoint" />
            <mxPoint x="940" y="250" as="targetPoint" />
          </mxGeometry>
        </mxCell>
        <mxCell id="q4M30ukwCYL39gT3UEou-46" value="capacity" style="ellipse;whiteSpace=wrap;html=1;" parent="1" vertex="1">
          <mxGeometry x="1070" y="280" width="70" height="30" as="geometry" />
        </mxCell>
        <mxCell id="q4M30ukwCYL39gT3UEou-48" value="services offered" style="ellipse;whiteSpace=wrap;html=1;" parent="1" vertex="1">
          <mxGeometry x="1020" y="500" width="70" height="30" as="geometry" />
        </mxCell>
        <mxCell id="q4M30ukwCYL39gT3UEou-49" value="coordinates" style="ellipse;whiteSpace=wrap;html=1;fontStyle=4" parent="1" vertex="1">
          <mxGeometry x="1010" y="435" width="70" height="30" as="geometry" />
        </mxCell>
        <mxCell id="q4M30ukwCYL39gT3UEou-50" value="location" style="ellipse;whiteSpace=wrap;html=1;" parent="1" vertex="1">
          <mxGeometry x="960" y="405" width="70" height="30" as="geometry" />
        </mxCell>
        <mxCell id="q4M30ukwCYL39gT3UEou-51" value="" style="endArrow=none;html=1;rounded=0;exitX=1;exitY=0;exitDx=0;exitDy=0;entryX=0;entryY=0.5;entryDx=0;entryDy=0;" parent="1" source="1rexJfYxTeG325KfZI-P-66" target="q4M30ukwCYL39gT3UEou-33" edge="1">
          <mxGeometry width="50" height="50" relative="1" as="geometry">
            <mxPoint x="980" y="710" as="sourcePoint" />
            <mxPoint x="980" y="670" as="targetPoint" />
          </mxGeometry>
        </mxCell>
        <mxCell id="q4M30ukwCYL39gT3UEou-52" value="" style="endArrow=none;html=1;rounded=0;exitX=1;exitY=1;exitDx=0;exitDy=0;entryX=0;entryY=0.5;entryDx=0;entryDy=0;" parent="1" source="q4M30ukwCYL39gT3UEou-34" target="q4M30ukwCYL39gT3UEou-58" edge="1">
          <mxGeometry width="50" height="50" relative="1" as="geometry">
            <mxPoint x="1130" y="490" as="sourcePoint" />
            <mxPoint x="1150" y="500" as="targetPoint" />
          </mxGeometry>
        </mxCell>
        <mxCell id="q4M30ukwCYL39gT3UEou-53" value="" style="endArrow=none;html=1;rounded=0;exitX=1;exitY=0.5;exitDx=0;exitDy=0;entryX=0;entryY=0.5;entryDx=0;entryDy=0;" parent="1" source="1rexJfYxTeG325KfZI-P-64" target="q4M30ukwCYL39gT3UEou-34" edge="1">
          <mxGeometry width="50" height="50" relative="1" as="geometry">
            <mxPoint x="960" y="540" as="sourcePoint" />
            <mxPoint x="1010" y="490" as="targetPoint" />
          </mxGeometry>
        </mxCell>
        <mxCell id="q4M30ukwCYL39gT3UEou-54" value="" style="endArrow=none;html=1;rounded=0;exitX=1;exitY=0.25;exitDx=0;exitDy=0;entryX=0;entryY=0.5;entryDx=0;entryDy=0;" parent="1" source="1rexJfYxTeG325KfZI-P-66" target="q4M30ukwCYL39gT3UEou-63" edge="1">
          <mxGeometry width="50" height="50" relative="1" as="geometry">
            <mxPoint x="1010" y="700" as="sourcePoint" />
            <mxPoint x="1050" y="680" as="targetPoint" />
          </mxGeometry>
        </mxCell>
        <mxCell id="q4M30ukwCYL39gT3UEou-55" value="" style="endArrow=none;html=1;rounded=0;exitX=1;exitY=1;exitDx=0;exitDy=0;entryX=0;entryY=0.5;entryDx=0;entryDy=0;" parent="1" source="1rexJfYxTeG325KfZI-P-64" target="q4M30ukwCYL39gT3UEou-48" edge="1">
          <mxGeometry width="50" height="50" relative="1" as="geometry">
            <mxPoint x="950" y="540" as="sourcePoint" />
            <mxPoint x="1000" y="490" as="targetPoint" />
          </mxGeometry>
        </mxCell>
        <mxCell id="q4M30ukwCYL39gT3UEou-56" value="" style="endArrow=none;html=1;rounded=0;exitX=1;exitY=0.5;exitDx=0;exitDy=0;entryX=0;entryY=0.5;entryDx=0;entryDy=0;" parent="1" source="q4M30ukwCYL39gT3UEou-34" target="MOWEyqLE1zK96tnYJJg_-1" edge="1">
          <mxGeometry width="50" height="50" relative="1" as="geometry">
            <mxPoint x="1100" y="490" as="sourcePoint" />
            <mxPoint x="1159.9051778415146" y="460.45617589936865" as="targetPoint" />
          </mxGeometry>
        </mxCell>
        <mxCell id="q4M30ukwCYL39gT3UEou-58" value="email" style="ellipse;whiteSpace=wrap;html=1;" parent="1" vertex="1">
          <mxGeometry x="1160" y="480" width="70" height="30" as="geometry" />
        </mxCell>
        <mxCell id="q4M30ukwCYL39gT3UEou-60" value="date of appointment" style="ellipse;whiteSpace=wrap;html=1;fontStyle=0" parent="1" vertex="1">
          <mxGeometry x="1080" y="730" width="80" height="40" as="geometry" />
        </mxCell>
        <mxCell id="q4M30ukwCYL39gT3UEou-62" value="salary" style="ellipse;whiteSpace=wrap;html=1;" parent="1" vertex="1">
          <mxGeometry x="1080" y="690" width="70" height="30" as="geometry" />
        </mxCell>
        <mxCell id="q4M30ukwCYL39gT3UEou-63" value="executive rank" style="ellipse;whiteSpace=wrap;html=1;fontStyle=0" parent="1" vertex="1">
          <mxGeometry x="1040" y="660" width="70" height="30" as="geometry" />
        </mxCell>
        <mxCell id="q4M30ukwCYL39gT3UEou-64" value="" style="endArrow=none;html=1;rounded=0;exitX=1;exitY=0.5;exitDx=0;exitDy=0;entryX=0;entryY=0.5;entryDx=0;entryDy=0;" parent="1" source="1rexJfYxTeG325KfZI-P-66" target="q4M30ukwCYL39gT3UEou-62" edge="1">
          <mxGeometry width="50" height="50" relative="1" as="geometry">
            <mxPoint x="1010" y="760" as="sourcePoint" />
            <mxPoint x="1060" y="710" as="targetPoint" />
          </mxGeometry>
        </mxCell>
        <mxCell id="q4M30ukwCYL39gT3UEou-66" value="" style="endArrow=none;html=1;rounded=0;exitX=1;exitY=1;exitDx=0;exitDy=0;entryX=0.033;entryY=0.25;entryDx=0;entryDy=0;entryPerimeter=0;" parent="1" source="1rexJfYxTeG325KfZI-P-66" target="q4M30ukwCYL39gT3UEou-60" edge="1">
          <mxGeometry width="50" height="50" relative="1" as="geometry">
            <mxPoint x="1200" y="680" as="sourcePoint" />
            <mxPoint x="980" y="750" as="targetPoint" />
          </mxGeometry>
        </mxCell>
        <mxCell id="q4M30ukwCYL39gT3UEou-67" value="" style="endArrow=none;html=1;rounded=0;exitX=1;exitY=0.75;exitDx=0;exitDy=0;entryX=0;entryY=0.5;entryDx=0;entryDy=0;" parent="1" source="1rexJfYxTeG325KfZI-P-73" target="q4M30ukwCYL39gT3UEou-73" edge="1">
          <mxGeometry width="50" height="50" relative="1" as="geometry">
            <mxPoint x="1330" y="315" as="sourcePoint" />
            <mxPoint x="1380" y="265" as="targetPoint" />
          </mxGeometry>
        </mxCell>
        <mxCell id="q4M30ukwCYL39gT3UEou-68" value="" style="endArrow=none;html=1;rounded=0;exitX=1;exitY=0.25;exitDx=0;exitDy=0;entryX=0.3;entryY=1.075;entryDx=0;entryDy=0;entryPerimeter=0;" parent="1" source="1rexJfYxTeG325KfZI-P-73" target="wewlbzniix8K99B4L0qG-7" edge="1">
          <mxGeometry width="50" height="50" relative="1" as="geometry">
            <mxPoint x="1280" y="280" as="sourcePoint" />
            <mxPoint x="1275" y="145.00000000000023" as="targetPoint" />
          </mxGeometry>
        </mxCell>
        <mxCell id="q4M30ukwCYL39gT3UEou-69" value="" style="endArrow=none;html=1;rounded=0;exitX=1;exitY=0;exitDx=0;exitDy=0;entryX=0;entryY=0.5;entryDx=0;entryDy=0;" parent="1" source="1rexJfYxTeG325KfZI-P-73" target="q4M30ukwCYL39gT3UEou-71" edge="1">
          <mxGeometry width="50" height="50" relative="1" as="geometry">
            <mxPoint x="1210" y="110" as="sourcePoint" />
            <mxPoint x="1260" y="60" as="targetPoint" />
          </mxGeometry>
        </mxCell>
        <mxCell id="q4M30ukwCYL39gT3UEou-71" value="name&amp;nbsp;" style="ellipse;whiteSpace=wrap;html=1;" parent="1" vertex="1">
          <mxGeometry x="1240" y="100" width="70" height="30" as="geometry" />
        </mxCell>
        <mxCell id="q4M30ukwCYL39gT3UEou-72" value="nationality" style="ellipse;whiteSpace=wrap;html=1;dashed=1;" parent="1" vertex="1">
          <mxGeometry x="1310" y="250" width="70" height="30" as="geometry" />
        </mxCell>
        <mxCell id="q4M30ukwCYL39gT3UEou-73" value="acheivments" style="ellipse;whiteSpace=wrap;html=1;" parent="1" vertex="1">
          <mxGeometry x="1310" y="160" width="70" height="30" as="geometry" />
        </mxCell>
        <mxCell id="q4M30ukwCYL39gT3UEou-75" value="" style="endArrow=none;html=1;rounded=0;exitX=1;exitY=1;exitDx=0;exitDy=0;entryX=0;entryY=0;entryDx=0;entryDy=0;" parent="1" source="1rexJfYxTeG325KfZI-P-73" target="q4M30ukwCYL39gT3UEou-72" edge="1">
          <mxGeometry width="50" height="50" relative="1" as="geometry">
            <mxPoint x="1180" y="235" as="sourcePoint" />
            <mxPoint x="1230" y="185" as="targetPoint" />
          </mxGeometry>
        </mxCell>
        <mxCell id="q4M30ukwCYL39gT3UEou-76" value="" style="endArrow=none;html=1;rounded=0;exitX=0.94;exitY=0.259;exitDx=0;exitDy=0;exitPerimeter=0;entryX=0.033;entryY=0.83;entryDx=0;entryDy=0;entryPerimeter=0;" parent="1" source="q4M30ukwCYL39gT3UEou-73" target="q4M30ukwCYL39gT3UEou-87" edge="1">
          <mxGeometry width="50" height="50" relative="1" as="geometry">
            <mxPoint x="1440" y="120" as="sourcePoint" />
            <mxPoint x="1420" y="150" as="targetPoint" />
          </mxGeometry>
        </mxCell>
        <mxCell id="q4M30ukwCYL39gT3UEou-77" value="" style="endArrow=none;html=1;rounded=0;entryX=1;entryY=0.5;entryDx=0;entryDy=0;exitX=0;exitY=0.5;exitDx=0;exitDy=0;" parent="1" source="q4M30ukwCYL39gT3UEou-86" target="q4M30ukwCYL39gT3UEou-73" edge="1">
          <mxGeometry width="50" height="50" relative="1" as="geometry">
            <mxPoint x="1360" y="345" as="sourcePoint" />
            <mxPoint x="1410" y="295" as="targetPoint" />
          </mxGeometry>
        </mxCell>
        <mxCell id="q4M30ukwCYL39gT3UEou-79" value="" style="endArrow=none;html=1;rounded=0;entryX=1;entryY=1;entryDx=0;entryDy=0;exitX=0;exitY=0.5;exitDx=0;exitDy=0;" parent="1" source="q4M30ukwCYL39gT3UEou-88" target="q4M30ukwCYL39gT3UEou-73" edge="1">
          <mxGeometry width="50" height="50" relative="1" as="geometry">
            <mxPoint x="1450" y="210" as="sourcePoint" />
            <mxPoint x="1420" y="305" as="targetPoint" />
          </mxGeometry>
        </mxCell>
        <mxCell id="q4M30ukwCYL39gT3UEou-80" value="" style="endArrow=none;html=1;rounded=0;exitX=1;exitY=1;exitDx=0;exitDy=0;entryX=0;entryY=0.5;entryDx=0;entryDy=0;" parent="1" source="1rexJfYxTeG325KfZI-P-73" target="q4M30ukwCYL39gT3UEou-85" edge="1">
          <mxGeometry width="50" height="50" relative="1" as="geometry">
            <mxPoint x="1260" y="250" as="sourcePoint" />
            <mxPoint x="1310" y="200" as="targetPoint" />
          </mxGeometry>
        </mxCell>
        <mxCell id="q4M30ukwCYL39gT3UEou-81" value="" style="endArrow=none;html=1;rounded=0;entryX=0;entryY=0.5;entryDx=0;entryDy=0;exitX=0.858;exitY=-0.059;exitDx=0;exitDy=0;exitPerimeter=0;" parent="1" source="1rexJfYxTeG325KfZI-P-73" target="q4M30ukwCYL39gT3UEou-84" edge="1">
          <mxGeometry width="50" height="50" relative="1" as="geometry">
            <mxPoint x="1170" y="130" as="sourcePoint" />
            <mxPoint x="1220" y="80" as="targetPoint" />
          </mxGeometry>
        </mxCell>
        <mxCell id="q4M30ukwCYL39gT3UEou-84" value="age" style="ellipse;whiteSpace=wrap;html=1;" parent="1" vertex="1">
          <mxGeometry x="1230" y="35" width="70" height="30" as="geometry" />
        </mxCell>
        <mxCell id="q4M30ukwCYL39gT3UEou-85" value="job records" style="ellipse;whiteSpace=wrap;html=1;fontStyle=0" parent="1" vertex="1">
          <mxGeometry x="1320" y="210" width="70" height="30" as="geometry" />
        </mxCell>
        <mxCell id="q4M30ukwCYL39gT3UEou-86" value="certificates" style="ellipse;whiteSpace=wrap;html=1;" parent="1" vertex="1">
          <mxGeometry x="1440" y="160" width="70" height="30" as="geometry" />
        </mxCell>
        <mxCell id="q4M30ukwCYL39gT3UEou-87" value="university degree" style="ellipse;whiteSpace=wrap;html=1;" parent="1" vertex="1">
          <mxGeometry x="1420" y="110" width="70" height="30" as="geometry" />
        </mxCell>
        <mxCell id="q4M30ukwCYL39gT3UEou-88" value="other activities" style="ellipse;whiteSpace=wrap;html=1;" parent="1" vertex="1">
          <mxGeometry x="1460" y="200" width="70" height="30" as="geometry" />
        </mxCell>
        <mxCell id="q4M30ukwCYL39gT3UEou-89" value="" style="endArrow=none;html=1;rounded=0;exitX=1;exitY=1;exitDx=0;exitDy=0;entryX=0.5;entryY=0;entryDx=0;entryDy=0;" parent="1" source="1rexJfYxTeG325KfZI-P-13" target="q4M30ukwCYL39gT3UEou-90" edge="1">
          <mxGeometry width="50" height="50" relative="1" as="geometry">
            <mxPoint x="630" y="340" as="sourcePoint" />
            <mxPoint x="730" y="310" as="targetPoint" />
          </mxGeometry>
        </mxCell>
        <mxCell id="q4M30ukwCYL39gT3UEou-90" value="acheivments" style="ellipse;whiteSpace=wrap;html=1;" parent="1" vertex="1">
          <mxGeometry x="720" y="265" width="70" height="30" as="geometry" />
        </mxCell>
        <mxCell id="q4M30ukwCYL39gT3UEou-91" value="certificates" style="ellipse;whiteSpace=wrap;html=1;" parent="1" vertex="1">
          <mxGeometry x="740" y="375" width="70" height="30" as="geometry" />
        </mxCell>
        <mxCell id="q4M30ukwCYL39gT3UEou-92" value="university degree" style="ellipse;whiteSpace=wrap;html=1;" parent="1" vertex="1">
          <mxGeometry x="700" y="405" width="70" height="30" as="geometry" />
        </mxCell>
        <mxCell id="q4M30ukwCYL39gT3UEou-93" value="other activities" style="ellipse;whiteSpace=wrap;html=1;" parent="1" vertex="1">
          <mxGeometry x="780" y="325" width="70" height="30" as="geometry" />
        </mxCell>
        <mxCell id="q4M30ukwCYL39gT3UEou-94" value="" style="endArrow=none;html=1;rounded=0;entryX=1;entryY=1;entryDx=0;entryDy=0;exitX=0;exitY=0.5;exitDx=0;exitDy=0;" parent="1" source="q4M30ukwCYL39gT3UEou-93" target="q4M30ukwCYL39gT3UEou-90" edge="1">
          <mxGeometry width="50" height="50" relative="1" as="geometry">
            <mxPoint x="790" y="370" as="sourcePoint" />
            <mxPoint x="806" y="348.5" as="targetPoint" />
          </mxGeometry>
        </mxCell>
        <mxCell id="q4M30ukwCYL39gT3UEou-95" value="" style="endArrow=none;html=1;rounded=0;exitX=0.5;exitY=1;exitDx=0;exitDy=0;entryX=0.206;entryY=-0.024;entryDx=0;entryDy=0;entryPerimeter=0;" parent="1" source="q4M30ukwCYL39gT3UEou-90" target="q4M30ukwCYL39gT3UEou-91" edge="1">
          <mxGeometry width="50" height="50" relative="1" as="geometry">
            <mxPoint x="784" y="373" as="sourcePoint" />
            <mxPoint x="750" y="370" as="targetPoint" />
          </mxGeometry>
        </mxCell>
        <mxCell id="q4M30ukwCYL39gT3UEou-96" value="" style="endArrow=none;html=1;rounded=0;entryX=0.298;entryY=1.051;entryDx=0;entryDy=0;entryPerimeter=0;exitX=0.319;exitY=-0.109;exitDx=0;exitDy=0;exitPerimeter=0;" parent="1" source="q4M30ukwCYL39gT3UEou-92" target="q4M30ukwCYL39gT3UEou-90" edge="1">
          <mxGeometry width="50" height="50" relative="1" as="geometry">
            <mxPoint x="721" y="380" as="sourcePoint" />
            <mxPoint x="730" y="390" as="targetPoint" />
          </mxGeometry>
        </mxCell>
        <mxCell id="q4M30ukwCYL39gT3UEou-97" value="training material" style="ellipse;whiteSpace=wrap;html=1;fontStyle=0" parent="1" vertex="1">
          <mxGeometry x="650" y="360" width="70" height="30" as="geometry" />
        </mxCell>
        <mxCell id="q4M30ukwCYL39gT3UEou-98" value="" style="endArrow=none;html=1;rounded=0;entryX=0.75;entryY=1;entryDx=0;entryDy=0;exitX=0.721;exitY=-0.055;exitDx=0;exitDy=0;exitPerimeter=0;" parent="1" source="q4M30ukwCYL39gT3UEou-97" target="1rexJfYxTeG325KfZI-P-13" edge="1">
          <mxGeometry width="50" height="50" relative="1" as="geometry">
            <mxPoint x="660" y="375" as="sourcePoint" />
            <mxPoint x="699" y="325" as="targetPoint" />
          </mxGeometry>
        </mxCell>
        <mxCell id="q4M30ukwCYL39gT3UEou-99" value="" style="endArrow=none;html=1;rounded=0;entryX=0.75;entryY=1;entryDx=0;entryDy=0;exitX=0.5;exitY=0;exitDx=0;exitDy=0;" parent="1" source="q4M30ukwCYL39gT3UEou-104" target="1rexJfYxTeG325KfZI-P-10" edge="1">
          <mxGeometry width="50" height="50" relative="1" as="geometry">
            <mxPoint x="580" y="370" as="sourcePoint" />
            <mxPoint x="500" y="476" as="targetPoint" />
          </mxGeometry>
        </mxCell>
        <mxCell id="q4M30ukwCYL39gT3UEou-100" value="" style="endArrow=none;html=1;rounded=0;entryX=0.75;entryY=0;entryDx=0;entryDy=0;exitX=0;exitY=1;exitDx=0;exitDy=0;" parent="1" source="q4M30ukwCYL39gT3UEou-106" target="1rexJfYxTeG325KfZI-P-75" edge="1">
          <mxGeometry width="50" height="50" relative="1" as="geometry">
            <mxPoint x="140" y="10" as="sourcePoint" />
            <mxPoint x="115" y="66" as="targetPoint" />
          </mxGeometry>
        </mxCell>
        <mxCell id="q4M30ukwCYL39gT3UEou-101" value="" style="endArrow=none;html=1;rounded=0;entryX=0.5;entryY=1;entryDx=0;entryDy=0;" parent="1" target="q4M30ukwCYL39gT3UEou-107" edge="1">
          <mxGeometry width="50" height="50" relative="1" as="geometry">
            <mxPoint x="69" y="80" as="sourcePoint" />
            <mxPoint x="90.00126265847075" y="-10.393398282201815" as="targetPoint" />
          </mxGeometry>
        </mxCell>
        <mxCell id="q4M30ukwCYL39gT3UEou-102" value="" style="endArrow=none;html=1;rounded=0;exitX=0.564;exitY=-0.02;exitDx=0;exitDy=0;exitPerimeter=0;entryX=0.5;entryY=1;entryDx=0;entryDy=0;" parent="1" source="1rexJfYxTeG325KfZI-P-75" target="q4M30ukwCYL39gT3UEou-108" edge="1">
          <mxGeometry width="50" height="50" relative="1" as="geometry">
            <mxPoint x="62.16" y="72.27" as="sourcePoint" />
            <mxPoint x="140" y="-70" as="targetPoint" />
          </mxGeometry>
        </mxCell>
        <mxCell id="q4M30ukwCYL39gT3UEou-104" value="join date" style="ellipse;whiteSpace=wrap;html=1;" parent="1" vertex="1">
          <mxGeometry x="560" y="430" width="70" height="30" as="geometry" />
        </mxCell>
        <mxCell id="q4M30ukwCYL39gT3UEou-105" value="name" style="ellipse;whiteSpace=wrap;html=1;fontStyle=4" parent="1" vertex="1">
          <mxGeometry x="120" y="35" width="70" height="30" as="geometry" />
        </mxCell>
        <mxCell id="q4M30ukwCYL39gT3UEou-106" value="previous ships built" style="ellipse;whiteSpace=wrap;html=1;" parent="1" vertex="1">
          <mxGeometry x="190" y="-100" width="90" height="40" as="geometry" />
        </mxCell>
        <mxCell id="q4M30ukwCYL39gT3UEou-107" value="isActive" style="ellipse;whiteSpace=wrap;html=1;" parent="1" vertex="1">
          <mxGeometry x="150" y="-130" width="70" height="30" as="geometry" />
        </mxCell>
        <mxCell id="q4M30ukwCYL39gT3UEou-108" value="rank" style="ellipse;whiteSpace=wrap;html=1;fontStyle=0" parent="1" vertex="1">
          <mxGeometry x="100" y="-100" width="70" height="30" as="geometry" />
        </mxCell>
        <mxCell id="q4M30ukwCYL39gT3UEou-110" value="" style="endArrow=none;html=1;rounded=0;exitX=0.5;exitY=0;exitDx=0;exitDy=0;entryX=0.5;entryY=1;entryDx=0;entryDy=0;" parent="1" source="q4M30ukwCYL39gT3UEou-116" target="q4M30ukwCYL39gT3UEou-119" edge="1">
          <mxGeometry width="50" height="50" relative="1" as="geometry">
            <mxPoint x="430" y="104" as="sourcePoint" />
            <mxPoint x="380" y="70" as="targetPoint" />
          </mxGeometry>
        </mxCell>
        <mxCell id="q4M30ukwCYL39gT3UEou-111" value="" style="endArrow=none;html=1;rounded=0;exitX=0;exitY=0;exitDx=0;exitDy=0;entryX=0.7;entryY=0.942;entryDx=0;entryDy=0;entryPerimeter=0;" parent="1" source="q4M30ukwCYL39gT3UEou-116" target="q4M30ukwCYL39gT3UEou-118" edge="1">
          <mxGeometry width="50" height="50" relative="1" as="geometry">
            <mxPoint x="410" y="134" as="sourcePoint" />
            <mxPoint x="360" y="100" as="targetPoint" />
          </mxGeometry>
        </mxCell>
        <mxCell id="q4M30ukwCYL39gT3UEou-112" value="" style="endArrow=none;html=1;rounded=0;exitX=0.417;exitY=0.005;exitDx=0;exitDy=0;exitPerimeter=0;entryX=0.5;entryY=1;entryDx=0;entryDy=0;" parent="1" source="1rexJfYxTeG325KfZI-P-8" target="q4M30ukwCYL39gT3UEou-116" edge="1">
          <mxGeometry width="50" height="50" relative="1" as="geometry">
            <mxPoint x="440" y="87" as="sourcePoint" />
            <mxPoint x="420" y="70" as="targetPoint" />
          </mxGeometry>
        </mxCell>
        <mxCell id="q4M30ukwCYL39gT3UEou-113" value="status" style="ellipse;whiteSpace=wrap;html=1;" parent="1" vertex="1">
          <mxGeometry x="165" width="70" height="30" as="geometry" />
        </mxCell>
        <mxCell id="q4M30ukwCYL39gT3UEou-114" value="date of foundation" style="ellipse;whiteSpace=wrap;html=1;" parent="1" vertex="1">
          <mxGeometry x="200" y="35" width="70" height="30" as="geometry" />
        </mxCell>
        <mxCell id="q4M30ukwCYL39gT3UEou-115" value="research studies" style="ellipse;whiteSpace=wrap;html=1;" parent="1" vertex="1">
          <mxGeometry x="425" y="-5" width="70" height="30" as="geometry" />
        </mxCell>
        <mxCell id="q4M30ukwCYL39gT3UEou-116" value="acheivments" style="ellipse;whiteSpace=wrap;html=1;" parent="1" vertex="1">
          <mxGeometry x="420" y="70" width="70" height="30" as="geometry" />
        </mxCell>
        <mxCell id="q4M30ukwCYL39gT3UEou-118" value="university degree" style="ellipse;whiteSpace=wrap;html=1;" parent="1" vertex="1">
          <mxGeometry x="350" y="10" width="70" height="30" as="geometry" />
        </mxCell>
        <mxCell id="q4M30ukwCYL39gT3UEou-119" value="certificates" style="ellipse;whiteSpace=wrap;html=1;" parent="1" vertex="1">
          <mxGeometry x="370" y="-30" width="70" height="30" as="geometry" />
        </mxCell>
        <mxCell id="q4M30ukwCYL39gT3UEou-121" value="" style="endArrow=none;html=1;rounded=0;exitX=0.427;exitY=0.006;exitDx=0;exitDy=0;entryX=0.5;entryY=1;entryDx=0;entryDy=0;exitPerimeter=0;" parent="1" source="1rexJfYxTeG325KfZI-P-9" target="q4M30ukwCYL39gT3UEou-113" edge="1">
          <mxGeometry width="50" height="50" relative="1" as="geometry">
            <mxPoint x="170" y="140" as="sourcePoint" />
            <mxPoint x="180" y="70" as="targetPoint" />
          </mxGeometry>
        </mxCell>
        <mxCell id="q4M30ukwCYL39gT3UEou-122" value="" style="endArrow=none;html=1;rounded=0;exitX=0.627;exitY=0.031;exitDx=0;exitDy=0;exitPerimeter=0;entryX=0.5;entryY=1;entryDx=0;entryDy=0;" parent="1" source="1rexJfYxTeG325KfZI-P-9" target="q4M30ukwCYL39gT3UEou-114" edge="1">
          <mxGeometry width="50" height="50" relative="1" as="geometry">
            <mxPoint x="260" y="40" as="sourcePoint" />
            <mxPoint x="230" y="60" as="targetPoint" />
          </mxGeometry>
        </mxCell>
        <mxCell id="q4M30ukwCYL39gT3UEou-123" value="" style="endArrow=none;html=1;rounded=0;exitX=1;exitY=0;exitDx=0;exitDy=0;entryX=0.5;entryY=1;entryDx=0;entryDy=0;" parent="1" source="q4M30ukwCYL39gT3UEou-116" target="q4M30ukwCYL39gT3UEou-115" edge="1">
          <mxGeometry width="50" height="50" relative="1" as="geometry">
            <mxPoint x="510" y="110" as="sourcePoint" />
            <mxPoint x="460" y="76" as="targetPoint" />
          </mxGeometry>
        </mxCell>
        <mxCell id="q4M30ukwCYL39gT3UEou-125" value="" style="endArrow=none;html=1;rounded=0;exitX=0.25;exitY=0;exitDx=0;exitDy=0;entryX=0.5;entryY=1;entryDx=0;entryDy=0;" parent="1" source="1rexJfYxTeG325KfZI-P-8" target="q4M30ukwCYL39gT3UEou-126" edge="1">
          <mxGeometry width="50" height="50" relative="1" as="geometry">
            <mxPoint x="401" y="96" as="sourcePoint" />
            <mxPoint x="360" y="70" as="targetPoint" />
          </mxGeometry>
        </mxCell>
        <mxCell id="q4M30ukwCYL39gT3UEou-126" value="discoveries" style="ellipse;whiteSpace=wrap;html=1;fontStyle=0" parent="1" vertex="1">
          <mxGeometry x="335" y="60" width="70" height="30" as="geometry" />
        </mxCell>
        <mxCell id="q4M30ukwCYL39gT3UEou-127" value="" style="endArrow=none;html=1;rounded=0;exitX=0.5;exitY=0;exitDx=0;exitDy=0;entryX=0.909;entryY=0.956;entryDx=0;entryDy=0;entryPerimeter=0;" parent="1" source="q4M30ukwCYL39gT3UEou-130" target="1rexJfYxTeG325KfZI-P-10" edge="1">
          <mxGeometry width="50" height="50" relative="1" as="geometry">
            <mxPoint x="610" y="374" as="sourcePoint" />
            <mxPoint x="560" y="340" as="targetPoint" />
          </mxGeometry>
        </mxCell>
        <mxCell id="q4M30ukwCYL39gT3UEou-128" value="" style="endArrow=none;html=1;rounded=0;exitX=0;exitY=1;exitDx=0;exitDy=0;entryX=0.75;entryY=0;entryDx=0;entryDy=0;" parent="1" source="q4M30ukwCYL39gT3UEou-131" target="1rexJfYxTeG325KfZI-P-9" edge="1">
          <mxGeometry width="50" height="50" relative="1" as="geometry">
            <mxPoint x="240" y="150" as="sourcePoint" />
            <mxPoint x="190" y="116" as="targetPoint" />
          </mxGeometry>
        </mxCell>
        <mxCell id="q4M30ukwCYL39gT3UEou-129" value="" style="endArrow=none;html=1;rounded=0;entryX=0.5;entryY=1;entryDx=0;entryDy=0;exitX=0.25;exitY=0;exitDx=0;exitDy=0;" parent="1" source="1rexJfYxTeG325KfZI-P-9" target="q4M30ukwCYL39gT3UEou-105" edge="1">
          <mxGeometry width="50" height="50" relative="1" as="geometry">
            <mxPoint x="165" y="140" as="sourcePoint" />
            <mxPoint x="160" y="80" as="targetPoint" />
          </mxGeometry>
        </mxCell>
        <mxCell id="q4M30ukwCYL39gT3UEou-130" value="estimate activity date" style="ellipse;whiteSpace=wrap;html=1;fontStyle=0" parent="1" vertex="1">
          <mxGeometry x="640" y="425" width="70" height="40" as="geometry" />
        </mxCell>
        <mxCell id="q4M30ukwCYL39gT3UEou-131" value="description" style="ellipse;whiteSpace=wrap;html=1;" parent="1" vertex="1">
          <mxGeometry x="245" y="70" width="70" height="30" as="geometry" />
        </mxCell>
        <mxCell id="q4M30ukwCYL39gT3UEou-132" value="" style="endArrow=none;html=1;rounded=0;entryX=0.545;entryY=0.875;entryDx=0;entryDy=0;entryPerimeter=0;exitX=0.5;exitY=0.167;exitDx=0;exitDy=0;exitPerimeter=0;" parent="1" source="q4M30ukwCYL39gT3UEou-133" target="1rexJfYxTeG325KfZI-P-10" edge="1">
          <mxGeometry width="50" height="50" relative="1" as="geometry">
            <mxPoint x="535" y="370" as="sourcePoint" />
            <mxPoint x="530" y="325" as="targetPoint" />
          </mxGeometry>
        </mxCell>
        <mxCell id="q4M30ukwCYL39gT3UEou-133" value="adaptability" style="ellipse;whiteSpace=wrap;html=1;" parent="1" vertex="1">
          <mxGeometry x="510" y="395" width="70" height="30" as="geometry" />
        </mxCell>
        <mxCell id="q4M30ukwCYL39gT3UEou-136" value="" style="endArrow=none;html=1;rounded=0;entryX=0.595;entryY=1.1;entryDx=0;entryDy=0;entryPerimeter=0;exitX=0.5;exitY=0;exitDx=0;exitDy=0;" parent="1" source="q4M30ukwCYL39gT3UEou-142" target="1rexJfYxTeG325KfZI-P-11" edge="1">
          <mxGeometry width="50" height="50" relative="1" as="geometry">
            <mxPoint x="400" y="435" as="sourcePoint" />
            <mxPoint x="405" y="365" as="targetPoint" />
          </mxGeometry>
        </mxCell>
        <mxCell id="q4M30ukwCYL39gT3UEou-137" value="" style="endArrow=none;html=1;rounded=0;entryX=0.75;entryY=1;entryDx=0;entryDy=0;exitX=0.414;exitY=-0.045;exitDx=0;exitDy=0;exitPerimeter=0;" parent="1" source="q4M30ukwCYL39gT3UEou-140" target="1rexJfYxTeG325KfZI-P-11" edge="1">
          <mxGeometry width="50" height="50" relative="1" as="geometry">
            <mxPoint x="415" y="440" as="sourcePoint" />
            <mxPoint x="420" y="370" as="targetPoint" />
          </mxGeometry>
        </mxCell>
        <mxCell id="q4M30ukwCYL39gT3UEou-139" value="" style="endArrow=none;html=1;rounded=0;entryX=0.909;entryY=1.125;entryDx=0;entryDy=0;entryPerimeter=0;exitX=0.5;exitY=0;exitDx=0;exitDy=0;" parent="1" source="q4M30ukwCYL39gT3UEou-144" target="1rexJfYxTeG325KfZI-P-11" edge="1">
          <mxGeometry width="50" height="50" relative="1" as="geometry">
            <mxPoint x="440" y="400" as="sourcePoint" />
            <mxPoint x="445" y="330" as="targetPoint" />
          </mxGeometry>
        </mxCell>
        <mxCell id="q4M30ukwCYL39gT3UEou-140" value="num of tackled missions" style="ellipse;whiteSpace=wrap;html=1;" parent="1" vertex="1">
          <mxGeometry x="420" y="375" width="80" height="50" as="geometry" />
        </mxCell>
        <mxCell id="q4M30ukwCYL39gT3UEou-142" value="estimated return&amp;nbsp;" style="ellipse;whiteSpace=wrap;html=1;fontStyle=0" parent="1" vertex="1">
          <mxGeometry x="360" y="405" width="70" height="30" as="geometry" />
        </mxCell>
        <mxCell id="q4M30ukwCYL39gT3UEou-144" value="num of flights" style="ellipse;whiteSpace=wrap;html=1;" parent="1" vertex="1">
          <mxGeometry x="450" y="340" width="70" height="30" as="geometry" />
        </mxCell>
        <mxCell id="q4M30ukwCYL39gT3UEou-146" value="" style="endArrow=none;html=1;rounded=0;entryX=0.59;entryY=1.033;entryDx=0;entryDy=0;exitX=0.099;exitY=0.015;exitDx=0;exitDy=0;exitPerimeter=0;entryPerimeter=0;" parent="1" source="1rexJfYxTeG325KfZI-P-39" target="q4M30ukwCYL39gT3UEou-159" edge="1">
          <mxGeometry width="50" height="50" relative="1" as="geometry">
            <mxPoint x="40" y="320" as="sourcePoint" />
            <mxPoint x="-182.5" y="21" as="targetPoint" />
          </mxGeometry>
        </mxCell>
        <mxCell id="q4M30ukwCYL39gT3UEou-150" value="" style="endArrow=none;html=1;rounded=0;exitX=0;exitY=0;exitDx=0;exitDy=0;entryX=0.5;entryY=1;entryDx=0;entryDy=0;" parent="1" source="1rexJfYxTeG325KfZI-P-39" target="q4M30ukwCYL39gT3UEou-156" edge="1">
          <mxGeometry width="50" height="50" relative="1" as="geometry">
            <mxPoint x="-155" y="99" as="sourcePoint" />
            <mxPoint x="-210" y="40" as="targetPoint" />
          </mxGeometry>
        </mxCell>
        <mxCell id="q4M30ukwCYL39gT3UEou-151" value="" style="endArrow=none;html=1;rounded=0;exitX=0.25;exitY=0;exitDx=0;exitDy=0;entryX=0.5;entryY=1;entryDx=0;entryDy=0;" parent="1" source="1rexJfYxTeG325KfZI-P-39" target="q4M30ukwCYL39gT3UEou-157" edge="1">
          <mxGeometry width="50" height="50" relative="1" as="geometry">
            <mxPoint x="-135" y="89" as="sourcePoint" />
            <mxPoint x="-100" y="50" as="targetPoint" />
          </mxGeometry>
        </mxCell>
        <mxCell id="q4M30ukwCYL39gT3UEou-152" value="" style="endArrow=none;html=1;rounded=0;exitX=0.153;exitY=-0.02;exitDx=0;exitDy=0;entryX=0.5;entryY=1;entryDx=0;entryDy=0;exitPerimeter=0;" parent="1" source="1rexJfYxTeG325KfZI-P-39" target="q4M30ukwCYL39gT3UEou-158" edge="1">
          <mxGeometry width="50" height="50" relative="1" as="geometry">
            <mxPoint x="-85" y="90" as="sourcePoint" />
            <mxPoint x="-140" y="31" as="targetPoint" />
          </mxGeometry>
        </mxCell>
        <mxCell id="q4M30ukwCYL39gT3UEou-153" value="" style="endArrow=none;html=1;rounded=0;exitX=0;exitY=0;exitDx=0;exitDy=0;entryX=0.99;entryY=0.758;entryDx=0;entryDy=0;entryPerimeter=0;" parent="1" source="1rexJfYxTeG325KfZI-P-39" target="q4M30ukwCYL39gT3UEou-155" edge="1">
          <mxGeometry width="50" height="50" relative="1" as="geometry">
            <mxPoint x="20" y="330" as="sourcePoint" />
            <mxPoint x="-220" y="70" as="targetPoint" />
          </mxGeometry>
        </mxCell>
        <mxCell id="q4M30ukwCYL39gT3UEou-154" value="" style="endArrow=none;html=1;rounded=0;exitX=0.303;exitY=-0.043;exitDx=0;exitDy=0;exitPerimeter=0;entryX=0.583;entryY=1.031;entryDx=0;entryDy=0;entryPerimeter=0;" parent="1" source="1rexJfYxTeG325KfZI-P-39" target="q4M30ukwCYL39gT3UEou-160" edge="1">
          <mxGeometry width="50" height="50" relative="1" as="geometry">
            <mxPoint x="90.5" y="332" as="sourcePoint" />
            <mxPoint x="-80.5" y="60" as="targetPoint" />
          </mxGeometry>
        </mxCell>
        <mxCell id="q4M30ukwCYL39gT3UEou-155" value="flight hours" style="ellipse;whiteSpace=wrap;html=1;" parent="1" vertex="1">
          <mxGeometry x="-320" y="70" width="70" height="30" as="geometry" />
        </mxCell>
        <mxCell id="q4M30ukwCYL39gT3UEou-156" value="isActive" style="ellipse;whiteSpace=wrap;html=1;" parent="1" vertex="1">
          <mxGeometry x="-300" y="25" width="70" height="30" as="geometry" />
        </mxCell>
        <mxCell id="q4M30ukwCYL39gT3UEou-157" value="ID" style="ellipse;whiteSpace=wrap;html=1;fontStyle=4" parent="1" vertex="1">
          <mxGeometry x="-160" y="10" width="70" height="30" as="geometry" />
        </mxCell>
        <mxCell id="q4M30ukwCYL39gT3UEou-158" value="type" style="ellipse;whiteSpace=wrap;html=1;" parent="1" vertex="1">
          <mxGeometry x="-220" y="-30" width="70" height="30" as="geometry" />
        </mxCell>
        <mxCell id="q4M30ukwCYL39gT3UEou-159" value="release date" style="ellipse;whiteSpace=wrap;html=1;" parent="1" vertex="1">
          <mxGeometry x="-270" y="-10" width="70" height="30" as="geometry" />
        </mxCell>
        <mxCell id="q4M30ukwCYL39gT3UEou-160" value="name" style="ellipse;whiteSpace=wrap;html=1;" parent="1" vertex="1">
          <mxGeometry x="-100" y="40" width="70" height="30" as="geometry" />
        </mxCell>
        <mxCell id="cJJgTG6IBXwWyWsM3s_j-1" value="" style="endArrow=none;html=1;rounded=0;entryX=0;entryY=0.5;entryDx=0;entryDy=0;exitX=1;exitY=0.5;exitDx=0;exitDy=0;" parent="1" source="cJJgTG6IBXwWyWsM3s_j-13" target="1rexJfYxTeG325KfZI-P-40" edge="1">
          <mxGeometry width="50" height="50" relative="1" as="geometry">
            <mxPoint x="-290" y="330" as="sourcePoint" />
            <mxPoint x="-240" y="320" as="targetPoint" />
          </mxGeometry>
        </mxCell>
        <mxCell id="cJJgTG6IBXwWyWsM3s_j-2" value="" style="endArrow=none;html=1;rounded=0;entryX=0;entryY=0.25;entryDx=0;entryDy=0;exitX=1;exitY=0.5;exitDx=0;exitDy=0;" parent="1" source="cJJgTG6IBXwWyWsM3s_j-10" target="1rexJfYxTeG325KfZI-P-109" edge="1">
          <mxGeometry width="50" height="50" relative="1" as="geometry">
            <mxPoint x="-190" y="570" as="sourcePoint" />
            <mxPoint x="-240" y="550" as="targetPoint" />
          </mxGeometry>
        </mxCell>
        <mxCell id="cJJgTG6IBXwWyWsM3s_j-3" value="" style="endArrow=none;html=1;rounded=0;entryX=0;entryY=0;entryDx=0;entryDy=0;exitX=1;exitY=1;exitDx=0;exitDy=0;" parent="1" source="cJJgTG6IBXwWyWsM3s_j-11" target="1rexJfYxTeG325KfZI-P-40" edge="1">
          <mxGeometry width="50" height="50" relative="1" as="geometry">
            <mxPoint x="-270" y="360" as="sourcePoint" />
            <mxPoint x="-220" y="310" as="targetPoint" />
          </mxGeometry>
        </mxCell>
        <mxCell id="cJJgTG6IBXwWyWsM3s_j-5" value="" style="endArrow=none;html=1;rounded=0;entryX=0;entryY=1;entryDx=0;entryDy=0;exitX=1;exitY=0.5;exitDx=0;exitDy=0;" parent="1" source="cJJgTG6IBXwWyWsM3s_j-14" target="1rexJfYxTeG325KfZI-P-40" edge="1">
          <mxGeometry width="50" height="50" relative="1" as="geometry">
            <mxPoint x="-280" y="360" as="sourcePoint" />
            <mxPoint x="-250" y="430" as="targetPoint" />
          </mxGeometry>
        </mxCell>
        <mxCell id="cJJgTG6IBXwWyWsM3s_j-10" value="name" style="ellipse;whiteSpace=wrap;html=1;fontStyle=4" parent="1" vertex="1">
          <mxGeometry x="-495" y="520" width="70" height="30" as="geometry" />
        </mxCell>
        <mxCell id="cJJgTG6IBXwWyWsM3s_j-11" value="coordinates" style="ellipse;whiteSpace=wrap;html=1;" parent="1" vertex="1">
          <mxGeometry x="-380" y="225" width="70" height="30" as="geometry" />
        </mxCell>
        <mxCell id="cJJgTG6IBXwWyWsM3s_j-13" value="type" style="ellipse;whiteSpace=wrap;html=1;" parent="1" vertex="1">
          <mxGeometry x="-450" y="300" width="70" height="30" as="geometry" />
        </mxCell>
        <mxCell id="cJJgTG6IBXwWyWsM3s_j-14" value="ID" style="ellipse;whiteSpace=wrap;html=1;fontStyle=4" parent="1" vertex="1">
          <mxGeometry x="-450" y="355" width="70" height="30" as="geometry" />
        </mxCell>
        <mxCell id="Mrhi2XAgZfxX1Kpvvkkq-1" value="" style="endArrow=none;html=1;rounded=0;entryX=0;entryY=0.5;entryDx=0;entryDy=0;exitX=1;exitY=0.5;exitDx=0;exitDy=0;" parent="1" source="Mrhi2XAgZfxX1Kpvvkkq-6" target="1rexJfYxTeG325KfZI-P-109" edge="1">
          <mxGeometry width="50" height="50" relative="1" as="geometry">
            <mxPoint x="-190" y="620" as="sourcePoint" />
            <mxPoint x="-100" y="630" as="targetPoint" />
          </mxGeometry>
        </mxCell>
        <mxCell id="Mrhi2XAgZfxX1Kpvvkkq-2" value="" style="endArrow=none;html=1;rounded=0;entryX=0;entryY=0;entryDx=0;entryDy=0;exitX=1;exitY=0.5;exitDx=0;exitDy=0;" parent="1" source="Mrhi2XAgZfxX1Kpvvkkq-7" target="1rexJfYxTeG325KfZI-P-102" edge="1">
          <mxGeometry width="50" height="50" relative="1" as="geometry">
            <mxPoint x="-170" y="770" as="sourcePoint" />
            <mxPoint x="-80" y="780" as="targetPoint" />
          </mxGeometry>
        </mxCell>
        <mxCell id="Mrhi2XAgZfxX1Kpvvkkq-3" value="" style="endArrow=none;html=1;rounded=0;entryX=0;entryY=0;entryDx=0;entryDy=0;exitX=1;exitY=0.5;exitDx=0;exitDy=0;" parent="1" source="Mrhi2XAgZfxX1Kpvvkkq-8" target="1rexJfYxTeG325KfZI-P-109" edge="1">
          <mxGeometry width="50" height="50" relative="1" as="geometry">
            <mxPoint x="-140" y="495" as="sourcePoint" />
            <mxPoint x="-50" y="515" as="targetPoint" />
          </mxGeometry>
        </mxCell>
        <mxCell id="Mrhi2XAgZfxX1Kpvvkkq-4" value="" style="endArrow=none;html=1;rounded=0;entryX=0;entryY=0.25;entryDx=0;entryDy=0;exitX=1;exitY=0.5;exitDx=0;exitDy=0;" parent="1" source="Mrhi2XAgZfxX1Kpvvkkq-5" target="1rexJfYxTeG325KfZI-P-109" edge="1">
          <mxGeometry width="50" height="50" relative="1" as="geometry">
            <mxPoint x="-210" y="600" as="sourcePoint" />
            <mxPoint x="-130" y="640" as="targetPoint" />
          </mxGeometry>
        </mxCell>
        <mxCell id="Mrhi2XAgZfxX1Kpvvkkq-5" value="mass" style="ellipse;whiteSpace=wrap;html=1;" parent="1" vertex="1">
          <mxGeometry x="-510" y="560" width="70" height="30" as="geometry" />
        </mxCell>
        <mxCell id="Mrhi2XAgZfxX1Kpvvkkq-6" value="velocity" style="ellipse;whiteSpace=wrap;html=1;" parent="1" vertex="1">
          <mxGeometry x="-500" y="605" width="70" height="30" as="geometry" />
        </mxCell>
        <mxCell id="Mrhi2XAgZfxX1Kpvvkkq-7" value="name" style="ellipse;whiteSpace=wrap;html=1;fontStyle=4" parent="1" vertex="1">
          <mxGeometry x="-220" y="740" width="70" height="30" as="geometry" />
        </mxCell>
        <mxCell id="Mrhi2XAgZfxX1Kpvvkkq-8" value="direction" style="ellipse;whiteSpace=wrap;html=1;" parent="1" vertex="1">
          <mxGeometry x="-495" y="470" width="70" height="30" as="geometry" />
        </mxCell>
        <mxCell id="Mrhi2XAgZfxX1Kpvvkkq-9" value="name" style="ellipse;whiteSpace=wrap;html=1;fontStyle=4" parent="1" vertex="1">
          <mxGeometry x="-130" y="480" width="70" height="30" as="geometry" />
        </mxCell>
        <mxCell id="Mrhi2XAgZfxX1Kpvvkkq-10" value="velocity" style="ellipse;whiteSpace=wrap;html=1;" parent="1" vertex="1">
          <mxGeometry x="-230" y="850" width="70" height="30" as="geometry" />
        </mxCell>
        <mxCell id="Mrhi2XAgZfxX1Kpvvkkq-11" value="morphology" style="ellipse;whiteSpace=wrap;html=1;" parent="1" vertex="1">
          <mxGeometry x="-240" y="810" width="70" height="30" as="geometry" />
        </mxCell>
        <mxCell id="Mrhi2XAgZfxX1Kpvvkkq-12" value="size" style="ellipse;whiteSpace=wrap;html=1;" parent="1" vertex="1">
          <mxGeometry x="-240" y="770" width="70" height="30" as="geometry" />
        </mxCell>
        <mxCell id="Mrhi2XAgZfxX1Kpvvkkq-13" value="radius" style="ellipse;whiteSpace=wrap;html=1;" parent="1" vertex="1">
          <mxGeometry x="-110" y="450" width="70" height="30" as="geometry" />
        </mxCell>
        <mxCell id="Mrhi2XAgZfxX1Kpvvkkq-14" value="" style="endArrow=none;html=1;rounded=0;entryX=0;entryY=0.75;entryDx=0;entryDy=0;exitX=1;exitY=0.5;exitDx=0;exitDy=0;" parent="1" source="Mrhi2XAgZfxX1Kpvvkkq-10" target="1rexJfYxTeG325KfZI-P-102" edge="1">
          <mxGeometry width="50" height="50" relative="1" as="geometry">
            <mxPoint x="-160" y="850" as="sourcePoint" />
            <mxPoint x="-90" y="905" as="targetPoint" />
          </mxGeometry>
        </mxCell>
        <mxCell id="Mrhi2XAgZfxX1Kpvvkkq-15" value="" style="endArrow=none;html=1;rounded=0;entryX=0.164;entryY=-0.013;entryDx=0;entryDy=0;exitX=0.652;exitY=1.117;exitDx=0;exitDy=0;entryPerimeter=0;exitPerimeter=0;" parent="1" source="Mrhi2XAgZfxX1Kpvvkkq-9" target="1rexJfYxTeG325KfZI-P-96" edge="1">
          <mxGeometry width="50" height="50" relative="1" as="geometry">
            <mxPoint x="135" y="520" as="sourcePoint" />
            <mxPoint x="235" y="545" as="targetPoint" />
          </mxGeometry>
        </mxCell>
        <mxCell id="Mrhi2XAgZfxX1Kpvvkkq-16" value="" style="endArrow=none;html=1;rounded=0;entryX=0;entryY=0.5;entryDx=0;entryDy=0;exitX=1;exitY=0.5;exitDx=0;exitDy=0;" parent="1" source="Mrhi2XAgZfxX1Kpvvkkq-11" target="1rexJfYxTeG325KfZI-P-102" edge="1">
          <mxGeometry width="50" height="50" relative="1" as="geometry">
            <mxPoint x="-175" y="830" as="sourcePoint" />
            <mxPoint x="-75" y="855" as="targetPoint" />
          </mxGeometry>
        </mxCell>
        <mxCell id="Mrhi2XAgZfxX1Kpvvkkq-17" value="" style="endArrow=none;html=1;rounded=0;entryX=0;entryY=0.25;entryDx=0;entryDy=0;exitX=1;exitY=0.5;exitDx=0;exitDy=0;" parent="1" source="Mrhi2XAgZfxX1Kpvvkkq-12" target="1rexJfYxTeG325KfZI-P-102" edge="1">
          <mxGeometry width="50" height="50" relative="1" as="geometry">
            <mxPoint x="-180" y="790" as="sourcePoint" />
            <mxPoint x="-100" y="865" as="targetPoint" />
          </mxGeometry>
        </mxCell>
        <mxCell id="Mrhi2XAgZfxX1Kpvvkkq-18" value="" style="endArrow=none;html=1;rounded=0;exitX=0.2;exitY=-0.079;exitDx=0;exitDy=0;exitPerimeter=0;entryX=0.738;entryY=1.006;entryDx=0;entryDy=0;entryPerimeter=0;" parent="1" source="1rexJfYxTeG325KfZI-P-96" target="Mrhi2XAgZfxX1Kpvvkkq-13" edge="1">
          <mxGeometry width="50" height="50" relative="1" as="geometry">
            <mxPoint x="170" y="515" as="sourcePoint" />
            <mxPoint x="220" y="465" as="targetPoint" />
          </mxGeometry>
        </mxCell>
        <mxCell id="Mrhi2XAgZfxX1Kpvvkkq-22" value="" style="endArrow=none;html=1;rounded=0;exitX=0.315;exitY=-0.113;exitDx=0;exitDy=0;exitPerimeter=0;entryX=0.5;entryY=1;entryDx=0;entryDy=0;" parent="1" source="1rexJfYxTeG325KfZI-P-96" target="Mrhi2XAgZfxX1Kpvvkkq-25" edge="1">
          <mxGeometry width="50" height="50" relative="1" as="geometry">
            <mxPoint x="180" y="525" as="sourcePoint" />
            <mxPoint x="170" y="490" as="targetPoint" />
          </mxGeometry>
        </mxCell>
        <mxCell id="Mrhi2XAgZfxX1Kpvvkkq-23" value="" style="endArrow=none;html=1;rounded=0;exitX=0.4;exitY=0.004;exitDx=0;exitDy=0;exitPerimeter=0;entryX=0.5;entryY=1;entryDx=0;entryDy=0;" parent="1" source="1rexJfYxTeG325KfZI-P-96" target="Mrhi2XAgZfxX1Kpvvkkq-26" edge="1">
          <mxGeometry width="50" height="50" relative="1" as="geometry">
            <mxPoint x="190" y="535" as="sourcePoint" />
            <mxPoint x="190" y="485" as="targetPoint" />
          </mxGeometry>
        </mxCell>
        <mxCell id="Mrhi2XAgZfxX1Kpvvkkq-24" value="" style="endArrow=none;html=1;rounded=0;exitX=0.612;exitY=-0.063;exitDx=0;exitDy=0;exitPerimeter=0;entryX=0.5;entryY=1;entryDx=0;entryDy=0;" parent="1" source="1rexJfYxTeG325KfZI-P-96" target="Mrhi2XAgZfxX1Kpvvkkq-29" edge="1">
          <mxGeometry width="50" height="50" relative="1" as="geometry">
            <mxPoint x="200" y="545" as="sourcePoint" />
            <mxPoint x="240" y="510" as="targetPoint" />
          </mxGeometry>
        </mxCell>
        <mxCell id="Mrhi2XAgZfxX1Kpvvkkq-25" value="mass" style="ellipse;whiteSpace=wrap;html=1;" parent="1" vertex="1">
          <mxGeometry x="-80" y="410" width="70" height="30" as="geometry" />
        </mxCell>
        <mxCell id="Mrhi2XAgZfxX1Kpvvkkq-26" value="num of moons" style="ellipse;whiteSpace=wrap;html=1;" parent="1" vertex="1">
          <mxGeometry x="-20" y="440" width="70" height="30" as="geometry" />
        </mxCell>
        <mxCell id="Mrhi2XAgZfxX1Kpvvkkq-29" value="distance from earth" style="ellipse;whiteSpace=wrap;html=1;" parent="1" vertex="1">
          <mxGeometry x="40" y="470" width="70" height="30" as="geometry" />
        </mxCell>
        <mxCell id="Mrhi2XAgZfxX1Kpvvkkq-30" value="" style="endArrow=none;html=1;rounded=0;entryX=0.75;entryY=1;entryDx=0;entryDy=0;exitX=0.5;exitY=0;exitDx=0;exitDy=0;" parent="1" source="Mrhi2XAgZfxX1Kpvvkkq-31" target="1rexJfYxTeG325KfZI-P-48" edge="1">
          <mxGeometry width="50" height="50" relative="1" as="geometry">
            <mxPoint x="260" y="460" as="sourcePoint" />
            <mxPoint x="245" y="438" as="targetPoint" />
          </mxGeometry>
        </mxCell>
        <mxCell id="Mrhi2XAgZfxX1Kpvvkkq-31" value="coordinates" style="ellipse;whiteSpace=wrap;html=1;" parent="1" vertex="1">
          <mxGeometry x="235" y="450" width="70" height="30" as="geometry" />
        </mxCell>
        <mxCell id="Mrhi2XAgZfxX1Kpvvkkq-32" value="" style="endArrow=none;html=1;rounded=0;exitX=0.573;exitY=1.083;exitDx=0;exitDy=0;exitPerimeter=0;entryX=0.588;entryY=0.056;entryDx=0;entryDy=0;entryPerimeter=0;" parent="1" source="1rexJfYxTeG325KfZI-P-48" target="Mrhi2XAgZfxX1Kpvvkkq-33" edge="1">
          <mxGeometry width="50" height="50" relative="1" as="geometry">
            <mxPoint x="270" y="430" as="sourcePoint" />
            <mxPoint x="210" y="460" as="targetPoint" />
          </mxGeometry>
        </mxCell>
        <mxCell id="Mrhi2XAgZfxX1Kpvvkkq-33" value="capacity" style="ellipse;whiteSpace=wrap;html=1;" parent="1" vertex="1">
          <mxGeometry x="190" y="480" width="70" height="30" as="geometry" />
        </mxCell>
        <mxCell id="Mrhi2XAgZfxX1Kpvvkkq-34" value="" style="endArrow=none;html=1;rounded=0;exitX=0.25;exitY=1;exitDx=0;exitDy=0;entryX=0.5;entryY=0;entryDx=0;entryDy=0;" parent="1" source="1rexJfYxTeG325KfZI-P-48" target="Mrhi2XAgZfxX1Kpvvkkq-35" edge="1">
          <mxGeometry width="50" height="50" relative="1" as="geometry">
            <mxPoint x="200" y="426" as="sourcePoint" />
            <mxPoint x="200" y="450" as="targetPoint" />
          </mxGeometry>
        </mxCell>
        <mxCell id="Mrhi2XAgZfxX1Kpvvkkq-35" value="name" style="ellipse;whiteSpace=wrap;html=1;fontStyle=4" parent="1" vertex="1">
          <mxGeometry x="140" y="440" width="70" height="30" as="geometry" />
        </mxCell>
        <mxCell id="Mrhi2XAgZfxX1Kpvvkkq-36" value="mass" style="ellipse;whiteSpace=wrap;html=1;" parent="1" vertex="1">
          <mxGeometry x="460" y="460" width="70" height="30" as="geometry" />
        </mxCell>
        <mxCell id="Mrhi2XAgZfxX1Kpvvkkq-37" value="temperature" style="ellipse;whiteSpace=wrap;html=1;" parent="1" vertex="1">
          <mxGeometry x="-180" y="510" width="70" height="30" as="geometry" />
        </mxCell>
        <mxCell id="Mrhi2XAgZfxX1Kpvvkkq-38" value="name" style="ellipse;whiteSpace=wrap;html=1;fontStyle=4" parent="1" vertex="1">
          <mxGeometry x="400" y="470" width="70" height="30" as="geometry" />
        </mxCell>
        <mxCell id="Mrhi2XAgZfxX1Kpvvkkq-39" value="type" style="ellipse;whiteSpace=wrap;html=1;" parent="1" vertex="1">
          <mxGeometry x="540" y="480" width="70" height="30" as="geometry" />
        </mxCell>
        <mxCell id="Mrhi2XAgZfxX1Kpvvkkq-40" value="temperature" style="ellipse;whiteSpace=wrap;html=1;" parent="1" vertex="1">
          <mxGeometry x="610" y="480" width="70" height="30" as="geometry" />
        </mxCell>
        <mxCell id="Mrhi2XAgZfxX1Kpvvkkq-41" value="distance away" style="ellipse;whiteSpace=wrap;html=1;" parent="1" vertex="1">
          <mxGeometry x="680" y="510" width="70" height="30" as="geometry" />
        </mxCell>
        <mxCell id="Mrhi2XAgZfxX1Kpvvkkq-42" value="" style="endArrow=none;html=1;rounded=0;exitX=1;exitY=0.25;exitDx=0;exitDy=0;entryX=0;entryY=1;entryDx=0;entryDy=0;" parent="1" source="1rexJfYxTeG325KfZI-P-92" target="Mrhi2XAgZfxX1Kpvvkkq-41" edge="1">
          <mxGeometry width="50" height="50" relative="1" as="geometry">
            <mxPoint x="625" y="615" as="sourcePoint" />
            <mxPoint x="675" y="565" as="targetPoint" />
          </mxGeometry>
        </mxCell>
        <mxCell id="Mrhi2XAgZfxX1Kpvvkkq-43" value="" style="endArrow=none;html=1;rounded=0;entryX=0.292;entryY=1.033;entryDx=0;entryDy=0;entryPerimeter=0;exitX=0.75;exitY=0;exitDx=0;exitDy=0;" parent="1" source="1rexJfYxTeG325KfZI-P-92" target="Mrhi2XAgZfxX1Kpvvkkq-40" edge="1">
          <mxGeometry width="50" height="50" relative="1" as="geometry">
            <mxPoint x="570" y="585" as="sourcePoint" />
            <mxPoint x="620" y="535" as="targetPoint" />
          </mxGeometry>
        </mxCell>
        <mxCell id="Mrhi2XAgZfxX1Kpvvkkq-44" value="" style="endArrow=none;html=1;rounded=0;entryX=0.352;entryY=1.093;entryDx=0;entryDy=0;entryPerimeter=0;exitX=0.661;exitY=0.047;exitDx=0;exitDy=0;exitPerimeter=0;" parent="1" source="1rexJfYxTeG325KfZI-P-92" target="Mrhi2XAgZfxX1Kpvvkkq-39" edge="1">
          <mxGeometry width="50" height="50" relative="1" as="geometry">
            <mxPoint x="510" y="585" as="sourcePoint" />
            <mxPoint x="560" y="535" as="targetPoint" />
          </mxGeometry>
        </mxCell>
        <mxCell id="Mrhi2XAgZfxX1Kpvvkkq-45" value="" style="endArrow=none;html=1;rounded=0;entryX=0.5;entryY=1;entryDx=0;entryDy=0;exitX=0.62;exitY=-0.019;exitDx=0;exitDy=0;exitPerimeter=0;" parent="1" source="1rexJfYxTeG325KfZI-P-92" target="Mrhi2XAgZfxX1Kpvvkkq-36" edge="1">
          <mxGeometry width="50" height="50" relative="1" as="geometry">
            <mxPoint x="480" y="560" as="sourcePoint" />
            <mxPoint x="530" y="510" as="targetPoint" />
          </mxGeometry>
        </mxCell>
        <mxCell id="Mrhi2XAgZfxX1Kpvvkkq-46" value="" style="endArrow=none;html=1;rounded=0;entryX=0.5;entryY=1;entryDx=0;entryDy=0;exitX=0.5;exitY=0;exitDx=0;exitDy=0;" parent="1" source="1rexJfYxTeG325KfZI-P-92" target="Mrhi2XAgZfxX1Kpvvkkq-38" edge="1">
          <mxGeometry width="50" height="50" relative="1" as="geometry">
            <mxPoint x="740" y="690" as="sourcePoint" />
            <mxPoint x="790" y="640" as="targetPoint" />
          </mxGeometry>
        </mxCell>
        <mxCell id="Mrhi2XAgZfxX1Kpvvkkq-47" value="name" style="ellipse;whiteSpace=wrap;html=1;fontStyle=4" parent="1" vertex="1">
          <mxGeometry x="460" y="1040" width="70" height="30" as="geometry" />
        </mxCell>
        <mxCell id="Mrhi2XAgZfxX1Kpvvkkq-48" value="mass" style="ellipse;whiteSpace=wrap;html=1;" parent="1" vertex="1">
          <mxGeometry x="550" y="1030" width="70" height="30" as="geometry" />
        </mxCell>
        <mxCell id="Mrhi2XAgZfxX1Kpvvkkq-49" value="distance away" style="ellipse;whiteSpace=wrap;html=1;" parent="1" vertex="1">
          <mxGeometry x="650" y="1020" width="70" height="30" as="geometry" />
        </mxCell>
        <mxCell id="Mrhi2XAgZfxX1Kpvvkkq-50" value="" style="endArrow=none;html=1;rounded=0;entryX=0.25;entryY=1;entryDx=0;entryDy=0;exitX=0.5;exitY=0;exitDx=0;exitDy=0;" parent="1" source="Mrhi2XAgZfxX1Kpvvkkq-47" target="1rexJfYxTeG325KfZI-P-103" edge="1">
          <mxGeometry width="50" height="50" relative="1" as="geometry">
            <mxPoint x="370" y="930" as="sourcePoint" />
            <mxPoint x="420" y="880" as="targetPoint" />
          </mxGeometry>
        </mxCell>
        <mxCell id="Mrhi2XAgZfxX1Kpvvkkq-51" value="" style="endArrow=none;html=1;rounded=0;entryX=0.615;entryY=1.053;entryDx=0;entryDy=0;entryPerimeter=0;exitX=0.295;exitY=0;exitDx=0;exitDy=0;exitPerimeter=0;" parent="1" source="Mrhi2XAgZfxX1Kpvvkkq-48" target="1rexJfYxTeG325KfZI-P-103" edge="1">
          <mxGeometry width="50" height="50" relative="1" as="geometry">
            <mxPoint x="380" y="940" as="sourcePoint" />
            <mxPoint x="430" y="890" as="targetPoint" />
          </mxGeometry>
        </mxCell>
        <mxCell id="Mrhi2XAgZfxX1Kpvvkkq-52" value="" style="endArrow=none;html=1;rounded=0;entryX=0.847;entryY=1.053;entryDx=0;entryDy=0;entryPerimeter=0;exitX=0.305;exitY=0.133;exitDx=0;exitDy=0;exitPerimeter=0;" parent="1" source="Mrhi2XAgZfxX1Kpvvkkq-49" target="1rexJfYxTeG325KfZI-P-103" edge="1">
          <mxGeometry width="50" height="50" relative="1" as="geometry">
            <mxPoint x="390" y="950" as="sourcePoint" />
            <mxPoint x="440" y="900" as="targetPoint" />
          </mxGeometry>
        </mxCell>
        <mxCell id="Mrhi2XAgZfxX1Kpvvkkq-53" value="" style="endArrow=none;html=1;rounded=0;exitX=1;exitY=1;exitDx=0;exitDy=0;entryX=0.5;entryY=0;entryDx=0;entryDy=0;" parent="1" source="1rexJfYxTeG325KfZI-P-79" target="Mrhi2XAgZfxX1Kpvvkkq-54" edge="1">
          <mxGeometry width="50" height="50" relative="1" as="geometry">
            <mxPoint x="350" y="495" as="sourcePoint" />
            <mxPoint x="360" y="500" as="targetPoint" />
          </mxGeometry>
        </mxCell>
        <mxCell id="Mrhi2XAgZfxX1Kpvvkkq-54" value="since" style="ellipse;whiteSpace=wrap;html=1;fontStyle=0" parent="1" vertex="1">
          <mxGeometry x="330" y="480" width="70" height="30" as="geometry" />
        </mxCell>
        <mxCell id="Mrhi2XAgZfxX1Kpvvkkq-55" value="" style="endArrow=none;html=1;rounded=0;exitX=1;exitY=0;exitDx=0;exitDy=0;entryX=0;entryY=1;entryDx=0;entryDy=0;" parent="1" source="1rexJfYxTeG325KfZI-P-70" target="Mrhi2XAgZfxX1Kpvvkkq-56" edge="1">
          <mxGeometry width="50" height="50" relative="1" as="geometry">
            <mxPoint x="1040" y="65" as="sourcePoint" />
            <mxPoint x="1030" y="40" as="targetPoint" />
          </mxGeometry>
        </mxCell>
        <mxCell id="Mrhi2XAgZfxX1Kpvvkkq-56" value="date" style="ellipse;whiteSpace=wrap;html=1;" parent="1" vertex="1">
          <mxGeometry x="1030" width="70" height="30" as="geometry" />
        </mxCell>
        <mxCell id="Mrhi2XAgZfxX1Kpvvkkq-57" value="" style="endArrow=none;html=1;rounded=0;entryX=0;entryY=0;entryDx=0;entryDy=0;exitX=0.5;exitY=1;exitDx=0;exitDy=0;" parent="1" source="Mrhi2XAgZfxX1Kpvvkkq-58" target="1rexJfYxTeG325KfZI-P-21" edge="1">
          <mxGeometry width="50" height="50" relative="1" as="geometry">
            <mxPoint x="685" as="sourcePoint" />
            <mxPoint x="735" y="85.5" as="targetPoint" />
          </mxGeometry>
        </mxCell>
        <mxCell id="Mrhi2XAgZfxX1Kpvvkkq-58" value="date" style="ellipse;whiteSpace=wrap;html=1;" parent="1" vertex="1">
          <mxGeometry x="665" y="-20" width="55" height="20" as="geometry" />
        </mxCell>
        <mxCell id="7-iYxL7hT6-Rsbtz_6UL-1" value="" style="endArrow=none;html=1;rounded=0;exitX=0.75;exitY=1;exitDx=0;exitDy=0;entryX=0.4;entryY=-0.056;entryDx=0;entryDy=0;entryPerimeter=0;" parent="1" source="1rexJfYxTeG325KfZI-P-66" target="7-iYxL7hT6-Rsbtz_6UL-2" edge="1">
          <mxGeometry width="50" height="50" relative="1" as="geometry">
            <mxPoint x="915" y="740" as="sourcePoint" />
            <mxPoint x="950" y="790" as="targetPoint" />
          </mxGeometry>
        </mxCell>
        <mxCell id="7-iYxL7hT6-Rsbtz_6UL-2" value="ID" style="ellipse;whiteSpace=wrap;html=1;fontStyle=4" parent="1" vertex="1">
          <mxGeometry x="910" y="830" width="70" height="30" as="geometry" />
        </mxCell>
        <mxCell id="D1R5GlwFaEGQKqoQGj3l-2" value="" style="shape=link;html=1;rounded=0;entryX=0.5;entryY=1;entryDx=0;entryDy=0;exitX=1;exitY=0.5;exitDx=0;exitDy=0;" parent="1" source="1rexJfYxTeG325KfZI-P-6" target="1rexJfYxTeG325KfZI-P-1" edge="1">
          <mxGeometry width="100" relative="1" as="geometry">
            <mxPoint x="410" y="220" as="sourcePoint" />
            <mxPoint x="510" y="220" as="targetPoint" />
          </mxGeometry>
        </mxCell>
        <mxCell id="SZLEVYD461X9BZwDGieU-1" value="" style="endArrow=none;html=1;rounded=0;exitX=0.903;exitY=1.089;exitDx=0;exitDy=0;exitPerimeter=0;entryX=0;entryY=0.5;entryDx=0;entryDy=0;" parent="1" source="1rexJfYxTeG325KfZI-P-66" target="SZLEVYD461X9BZwDGieU-2" edge="1">
          <mxGeometry width="50" height="50" relative="1" as="geometry">
            <mxPoint x="915" y="770" as="sourcePoint" />
            <mxPoint x="1040" y="800" as="targetPoint" />
          </mxGeometry>
        </mxCell>
        <mxCell id="SZLEVYD461X9BZwDGieU-2" value="age" style="ellipse;whiteSpace=wrap;html=1;fontStyle=0" parent="1" vertex="1">
          <mxGeometry x="1020" y="810" width="70" height="30" as="geometry" />
        </mxCell>
        <mxCell id="SZLEVYD461X9BZwDGieU-3" value="" style="endArrow=none;html=1;rounded=0;exitX=0.95;exitY=0.998;exitDx=0;exitDy=0;exitPerimeter=0;entryX=0;entryY=0.5;entryDx=0;entryDy=0;" parent="1" source="1rexJfYxTeG325KfZI-P-66" target="SZLEVYD461X9BZwDGieU-4" edge="1">
          <mxGeometry width="50" height="50" relative="1" as="geometry">
            <mxPoint x="950" y="729" as="sourcePoint" />
            <mxPoint x="1090" y="790" as="targetPoint" />
          </mxGeometry>
        </mxCell>
        <mxCell id="SZLEVYD461X9BZwDGieU-4" value="duration (derived from age - appointment date)" style="ellipse;whiteSpace=wrap;html=1;fontStyle=0" parent="1" vertex="1">
          <mxGeometry x="1110" y="780" width="150" height="80" as="geometry" />
        </mxCell>
        <mxCell id="SZLEVYD461X9BZwDGieU-5" value="date of application" style="ellipse;whiteSpace=wrap;html=1;" parent="1" vertex="1">
          <mxGeometry x="140" y="220" width="70" height="30" as="geometry" />
        </mxCell>
        <mxCell id="SZLEVYD461X9BZwDGieU-6" value="" style="endArrow=none;html=1;rounded=0;exitX=1;exitY=0.5;exitDx=0;exitDy=0;entryX=0;entryY=0.5;entryDx=0;entryDy=0;" parent="1" source="SZLEVYD461X9BZwDGieU-5" target="1rexJfYxTeG325KfZI-P-33" edge="1">
          <mxGeometry width="50" height="50" relative="1" as="geometry">
            <mxPoint x="220" y="286" as="sourcePoint" />
            <mxPoint x="276" y="200" as="targetPoint" />
          </mxGeometry>
        </mxCell>
        <mxCell id="SZLEVYD461X9BZwDGieU-7" value="" style="endArrow=none;html=1;rounded=0;exitX=1;exitY=0.5;exitDx=0;exitDy=0;entryX=0;entryY=0.5;entryDx=0;entryDy=0;" parent="1" source="1rexJfYxTeG325KfZI-P-55" target="SZLEVYD461X9BZwDGieU-8" edge="1">
          <mxGeometry width="50" height="50" relative="1" as="geometry">
            <mxPoint x="900" y="180" as="sourcePoint" />
            <mxPoint x="910" y="140" as="targetPoint" />
          </mxGeometry>
        </mxCell>
        <mxCell id="SZLEVYD461X9BZwDGieU-8" value="since" style="ellipse;whiteSpace=wrap;html=1;" parent="1" vertex="1">
          <mxGeometry x="910" y="125" width="70" height="30" as="geometry" />
        </mxCell>
        <mxCell id="SxceQ0iaYuXCgHA_C6Za-1" value="" style="endArrow=none;html=1;rounded=0;entryX=0;entryY=0;entryDx=0;entryDy=0;exitX=1;exitY=1;exitDx=0;exitDy=0;" parent="1" source="Mrhi2XAgZfxX1Kpvvkkq-37" target="1rexJfYxTeG325KfZI-P-96" edge="1">
          <mxGeometry width="50" height="50" relative="1" as="geometry">
            <mxPoint x="-100" y="530" as="sourcePoint" />
            <mxPoint x="2" y="600" as="targetPoint" />
          </mxGeometry>
        </mxCell>
        <mxCell id="MOWEyqLE1zK96tnYJJg_-1" value="phone" style="ellipse;whiteSpace=wrap;html=1;" parent="1" vertex="1">
          <mxGeometry x="1170" y="435" width="70" height="35" as="geometry" />
        </mxCell>
        <mxCell id="rfzU6ItRxPz-89dlVDw0-1" value="become" style="rhombus;whiteSpace=wrap;html=1;" parent="1" vertex="1">
          <mxGeometry x="425" y="270" width="50" height="50" as="geometry" />
        </mxCell>
        <mxCell id="rfzU6ItRxPz-89dlVDw0-4" value="" style="endArrow=none;html=1;rounded=0;exitX=0.5;exitY=0;exitDx=0;exitDy=0;entryX=0;entryY=1;entryDx=0;entryDy=0;" parent="1" source="rfzU6ItRxPz-89dlVDw0-1" target="rfzU6ItRxPz-89dlVDw0-5" edge="1">
          <mxGeometry width="50" height="50" relative="1" as="geometry">
            <mxPoint x="435" y="275" as="sourcePoint" />
            <mxPoint x="470" y="250" as="targetPoint" />
          </mxGeometry>
        </mxCell>
        <mxCell id="rfzU6ItRxPz-89dlVDw0-5" value="date" style="ellipse;whiteSpace=wrap;html=1;" parent="1" vertex="1">
          <mxGeometry x="470" y="220" width="70" height="30" as="geometry" />
        </mxCell>
        <mxCell id="rfzU6ItRxPz-89dlVDw0-6" value="" style="shape=flexArrow;endArrow=classic;html=1;rounded=0;exitX=1;exitY=0;exitDx=0;exitDy=0;entryX=0;entryY=0.5;entryDx=0;entryDy=0;" parent="1" source="1rexJfYxTeG325KfZI-P-11" target="rfzU6ItRxPz-89dlVDw0-1" edge="1">
          <mxGeometry width="50" height="50" relative="1" as="geometry">
            <mxPoint x="405" y="315" as="sourcePoint" />
            <mxPoint x="455" y="265" as="targetPoint" />
          </mxGeometry>
        </mxCell>
        <mxCell id="rfzU6ItRxPz-89dlVDw0-8" value="" style="shape=link;html=1;rounded=0;exitX=1;exitY=0;exitDx=0;exitDy=0;entryX=0;entryY=1;entryDx=0;entryDy=0;" parent="1" source="1rexJfYxTeG325KfZI-P-102" target="1rexJfYxTeG325KfZI-P-104" edge="1">
          <mxGeometry width="100" relative="1" as="geometry">
            <mxPoint x="235" y="740" as="sourcePoint" />
            <mxPoint x="335" y="740" as="targetPoint" />
          </mxGeometry>
        </mxCell>
        <mxCell id="rfzU6ItRxPz-89dlVDw0-9" value="" style="endArrow=classic;html=1;rounded=0;exitX=0;exitY=0.5;exitDx=0;exitDy=0;entryX=1;entryY=0.5;entryDx=0;entryDy=0;" parent="1" source="1rexJfYxTeG325KfZI-P-10" target="rfzU6ItRxPz-89dlVDw0-1" edge="1">
          <mxGeometry width="50" height="50" relative="1" as="geometry">
            <mxPoint x="460" y="270" as="sourcePoint" />
            <mxPoint x="510" y="220" as="targetPoint" />
          </mxGeometry>
        </mxCell>
        <mxCell id="rfzU6ItRxPz-89dlVDw0-10" value="name" style="ellipse;whiteSpace=wrap;html=1;" parent="1" vertex="1">
          <mxGeometry x="50" y="-80" width="70" height="30" as="geometry" />
        </mxCell>
        <mxCell id="rfzU6ItRxPz-89dlVDw0-11" value="ID" style="ellipse;whiteSpace=wrap;html=1;fontStyle=4" parent="1" vertex="1">
          <mxGeometry x="10" y="-170" width="70" height="30" as="geometry" />
        </mxCell>
        <mxCell id="rfzU6ItRxPz-89dlVDw0-12" value="" style="endArrow=none;html=1;rounded=0;exitX=0.418;exitY=0;exitDx=0;exitDy=0;entryX=0.5;entryY=1;entryDx=0;entryDy=0;exitPerimeter=0;" parent="1" source="1rexJfYxTeG325KfZI-P-75" target="rfzU6ItRxPz-89dlVDw0-10" edge="1">
          <mxGeometry width="50" height="50" relative="1" as="geometry">
            <mxPoint y="107" as="sourcePoint" />
            <mxPoint x="-13" y="30" as="targetPoint" />
          </mxGeometry>
        </mxCell>
        <mxCell id="rfzU6ItRxPz-89dlVDw0-13" value="" style="endArrow=none;html=1;rounded=0;exitX=0.382;exitY=0;exitDx=0;exitDy=0;exitPerimeter=0;entryX=0.5;entryY=1;entryDx=0;entryDy=0;" parent="1" source="1rexJfYxTeG325KfZI-P-75" target="rfzU6ItRxPz-89dlVDw0-11" edge="1">
          <mxGeometry width="50" height="50" relative="1" as="geometry">
            <mxPoint x="55" y="30" as="sourcePoint" />
            <mxPoint x="50" y="-110" as="targetPoint" />
          </mxGeometry>
        </mxCell>
        <mxCell id="wewlbzniix8K99B4L0qG-1" value="" style="shape=flexArrow;endArrow=classic;html=1;rounded=0;exitX=1;exitY=0.5;exitDx=0;exitDy=0;entryX=0;entryY=0.5;entryDx=0;entryDy=0;" parent="1" source="1rexJfYxTeG325KfZI-P-96" target="1rexJfYxTeG325KfZI-P-93" edge="1">
          <mxGeometry width="50" height="50" relative="1" as="geometry">
            <mxPoint x="250" y="670" as="sourcePoint" />
            <mxPoint x="300" y="620" as="targetPoint" />
          </mxGeometry>
        </mxCell>
        <mxCell id="wewlbzniix8K99B4L0qG-4" value="" style="shape=link;html=1;rounded=0;entryX=0.5;entryY=1;entryDx=0;entryDy=0;exitX=0.5;exitY=0;exitDx=0;exitDy=0;" parent="1" source="1rexJfYxTeG325KfZI-P-105" target="1rexJfYxTeG325KfZI-P-92" edge="1">
          <mxGeometry width="100" relative="1" as="geometry">
            <mxPoint x="230" y="900" as="sourcePoint" />
            <mxPoint x="330" y="900" as="targetPoint" />
          </mxGeometry>
        </mxCell>
        <mxCell id="wewlbzniix8K99B4L0qG-5" value="" style="endArrow=none;html=1;rounded=0;exitX=0.75;exitY=0;exitDx=0;exitDy=0;entryX=0;entryY=1;entryDx=0;entryDy=0;" parent="1" source="1rexJfYxTeG325KfZI-P-73" target="wewlbzniix8K99B4L0qG-6" edge="1">
          <mxGeometry width="50" height="50" relative="1" as="geometry">
            <mxPoint x="1090" y="131.5" as="sourcePoint" />
            <mxPoint x="1200" y="80" as="targetPoint" />
          </mxGeometry>
        </mxCell>
        <mxCell id="wewlbzniix8K99B4L0qG-6" value="ID" style="ellipse;whiteSpace=wrap;html=1;fontStyle=4" parent="1" vertex="1">
          <mxGeometry x="1180" y="5" width="70" height="30" as="geometry" />
        </mxCell>
        <mxCell id="wewlbzniix8K99B4L0qG-7" value="phone number" style="ellipse;whiteSpace=wrap;html=1;" parent="1" vertex="1">
          <mxGeometry x="1330" y="90" width="70" height="30" as="geometry" />
        </mxCell>
        <mxCell id="hkQfQkl1zbd3IIbeOThu-2" value="performs" style="rhombus;whiteSpace=wrap;html=1;" parent="1" vertex="1">
          <mxGeometry x="-90" y="-70" width="70" height="50" as="geometry" />
        </mxCell>
        <mxCell id="hkQfQkl1zbd3IIbeOThu-5" value="services" style="rounded=0;whiteSpace=wrap;html=1;" parent="1" vertex="1">
          <mxGeometry x="-195" y="-155" width="85" height="40" as="geometry" />
        </mxCell>
        <mxCell id="hkQfQkl1zbd3IIbeOThu-7" value="" style="shape=link;html=1;rounded=0;exitX=0.663;exitY=1.005;exitDx=0;exitDy=0;exitPerimeter=0;entryX=0.168;entryY=-0.118;entryDx=0;entryDy=0;entryPerimeter=0;" parent="1" source="hkQfQkl1zbd3IIbeOThu-2" target="1rexJfYxTeG325KfZI-P-75" edge="1">
          <mxGeometry width="100" relative="1" as="geometry">
            <mxPoint x="-40" y="30" as="sourcePoint" />
            <mxPoint x="60" y="30" as="targetPoint" />
          </mxGeometry>
        </mxCell>
        <mxCell id="hkQfQkl1zbd3IIbeOThu-8" value="" style="shape=flexArrow;endArrow=classic;html=1;rounded=0;exitX=0.5;exitY=1;exitDx=0;exitDy=0;entryX=0;entryY=0;entryDx=0;entryDy=0;" parent="1" source="hkQfQkl1zbd3IIbeOThu-5" target="hkQfQkl1zbd3IIbeOThu-2" edge="1">
          <mxGeometry width="50" height="50" relative="1" as="geometry">
            <mxPoint x="-140" y="-80" as="sourcePoint" />
            <mxPoint x="-90" y="-130" as="targetPoint" />
          </mxGeometry>
        </mxCell>
        <mxCell id="hkQfQkl1zbd3IIbeOThu-9" value="name (partial key)" style="ellipse;whiteSpace=wrap;html=1;fontStyle=4;" parent="1" vertex="1">
          <mxGeometry x="-320" y="-210" width="90" height="40" as="geometry" />
        </mxCell>
        <mxCell id="hkQfQkl1zbd3IIbeOThu-10" value="type" style="ellipse;whiteSpace=wrap;html=1;" parent="1" vertex="1">
          <mxGeometry x="-230" y="-230" width="70" height="30" as="geometry" />
        </mxCell>
        <mxCell id="hkQfQkl1zbd3IIbeOThu-12" value="description" style="ellipse;whiteSpace=wrap;html=1;" parent="1" vertex="1">
          <mxGeometry x="-140" y="-230" width="70" height="30" as="geometry" />
        </mxCell>
        <mxCell id="hkQfQkl1zbd3IIbeOThu-13" value="" style="endArrow=none;html=1;rounded=0;exitX=0.676;exitY=0.944;exitDx=0;exitDy=0;exitPerimeter=0;entryX=0;entryY=0.25;entryDx=0;entryDy=0;" parent="1" source="hkQfQkl1zbd3IIbeOThu-9" target="hkQfQkl1zbd3IIbeOThu-5" edge="1">
          <mxGeometry width="50" height="50" relative="1" as="geometry">
            <mxPoint x="-250" y="-115" as="sourcePoint" />
            <mxPoint x="-200" y="-165" as="targetPoint" />
          </mxGeometry>
        </mxCell>
        <mxCell id="hkQfQkl1zbd3IIbeOThu-14" value="" style="endArrow=none;html=1;rounded=0;exitX=0.5;exitY=1;exitDx=0;exitDy=0;entryX=0.25;entryY=0;entryDx=0;entryDy=0;" parent="1" source="hkQfQkl1zbd3IIbeOThu-10" target="hkQfQkl1zbd3IIbeOThu-5" edge="1">
          <mxGeometry width="50" height="50" relative="1" as="geometry">
            <mxPoint x="-240" y="-105" as="sourcePoint" />
            <mxPoint x="-190" y="-155" as="targetPoint" />
            <Array as="points">
              <mxPoint x="-190" y="-180" />
            </Array>
          </mxGeometry>
        </mxCell>
        <mxCell id="hkQfQkl1zbd3IIbeOThu-15" value="" style="endArrow=none;html=1;rounded=0;exitX=0.5;exitY=1;exitDx=0;exitDy=0;entryX=0.5;entryY=0;entryDx=0;entryDy=0;" parent="1" source="hkQfQkl1zbd3IIbeOThu-12" target="hkQfQkl1zbd3IIbeOThu-5" edge="1">
          <mxGeometry width="50" height="50" relative="1" as="geometry">
            <mxPoint x="-230" y="-95" as="sourcePoint" />
            <mxPoint x="-180" y="-145" as="targetPoint" />
          </mxGeometry>
        </mxCell>
        <mxCell id="4dHV4B6uLQwJnrrSZOD2-1" value="" style="endArrow=none;html=1;rounded=0;entryX=0;entryY=0.5;entryDx=0;entryDy=0;exitX=1;exitY=0.5;exitDx=0;exitDy=0;" edge="1" parent="1" source="1rexJfYxTeG325KfZI-P-93" target="1rexJfYxTeG325KfZI-P-92">
          <mxGeometry width="50" height="50" relative="1" as="geometry">
            <mxPoint x="330" y="640" as="sourcePoint" />
            <mxPoint x="380" y="590" as="targetPoint" />
          </mxGeometry>
        </mxCell>
      </root>
    </mxGraphModel>
  </diagram>
</mxfile>
